<svg width="24" height="24" viewBox="0 0 24 24" fill="none" xmlns="http://www.w3.org/2000/svg">
<path d="M23.5861 4.13794H0.413812C0.185297 4.13794 0 4.32319 0 4.5517V19.4482C0 19.6767 0.185297 19.862 0.413812 19.862H23.5862C23.8147 19.862 24 19.6767 24 19.4482V4.5517C24 4.32319 23.8147 4.13794 23.5861 4.13794Z" fill="#82C3D2"/>
<path d="M2.78997 6.02093C2.75251 5.86235 2.74319 5.8039 2.81434 5.73279C2.84903 5.6981 2.84903 5.6419 2.81434 5.60721C2.77966 5.57252 2.72345 5.57252 2.68876 5.60721C2.54476 5.75126 2.57912 5.90074 2.61639 6.05904C2.50286 6.02196 2.38511 6.04947 2.32202 6.12907C2.2907 6.16877 2.23014 6.28015 2.34362 6.45799C2.37002 6.49929 2.42458 6.51143 2.46625 6.48527C2.50764 6.45888 2.51969 6.4039 2.4933 6.36265C2.45073 6.29566 2.44947 6.25436 2.46137 6.23927C2.47544 6.22141 2.51903 6.21199 2.56469 6.22816C2.59417 6.23838 2.6627 6.27377 2.6627 6.38065C2.6627 6.466 2.62323 6.54424 2.55442 6.59505C2.48547 6.64605 2.39622 6.66044 2.3102 6.63372C2.20398 6.60129 2.12978 6.4894 2.12978 6.36157C2.12978 6.27011 2.14938 6.17768 2.18538 6.09668C2.19109 6.08472 2.32684 5.80352 2.36181 5.69871C2.43095 5.49138 2.36069 5.38713 2.31273 5.34358C2.24856 5.28513 2.15477 5.27055 2.07405 5.30594C2.06177 5.31138 2.05164 5.31926 2.041 5.32657C2.03036 5.31921 2.02019 5.31138 2.00795 5.30594C1.92728 5.27055 1.83353 5.28513 1.76927 5.34358C1.72131 5.38713 1.65105 5.49143 1.72019 5.69871C1.75516 5.80352 1.89086 6.08472 1.89536 6.0941C1.93253 6.17772 1.95217 6.27016 1.95217 6.36161C1.95217 6.48949 1.87802 6.60133 1.77175 6.63377C1.68541 6.66044 1.59644 6.64624 1.52753 6.5951C1.45872 6.54424 1.41925 6.46605 1.41925 6.38069C1.41925 6.27382 1.48778 6.23847 1.51727 6.22821C1.56306 6.21208 1.60642 6.22141 1.62058 6.23932C1.63249 6.25441 1.63122 6.29571 1.58866 6.36269C1.56227 6.40399 1.57431 6.45897 1.6157 6.48532C1.65742 6.51171 1.71217 6.49938 1.73833 6.45804C1.85177 6.28019 1.79125 6.16886 1.75994 6.12911C1.6968 6.04952 1.57909 6.02201 1.46556 6.05908C1.50288 5.90088 1.53719 5.7513 1.39319 5.60726C1.3585 5.57257 1.3023 5.57257 1.26761 5.60726C1.23292 5.64194 1.23292 5.69815 1.26761 5.73283C1.33872 5.80394 1.32949 5.8624 1.29199 6.02097C1.26949 6.11599 1.24155 6.23449 1.24155 6.38055C1.24155 6.47772 1.27572 6.57068 1.33319 6.64704H1.33033C1.28125 6.64704 1.2415 6.68674 1.2415 6.73586C1.2415 6.78494 1.2812 6.82469 1.33033 6.82469H1.33319C1.27572 6.90105 1.24155 6.99396 1.24155 7.09113C1.24155 7.23719 1.26949 7.35569 1.29194 7.45075C1.32939 7.60933 1.33872 7.66778 1.26756 7.73889C1.23288 7.77358 1.23288 7.82978 1.26756 7.86447C1.28491 7.88181 1.30764 7.89049 1.33038 7.89049C1.35306 7.89049 1.37585 7.88181 1.39319 7.86447C1.53719 7.72042 1.50283 7.57089 1.46556 7.41264C1.57909 7.44958 1.69684 7.42221 1.75994 7.34261C1.79125 7.30291 1.85181 7.19153 1.73833 7.01369C1.71203 6.97239 1.65714 6.96011 1.6157 6.98641C1.57431 7.0128 1.56227 7.06778 1.58866 7.10903C1.63122 7.17602 1.63249 7.21732 1.62058 7.23241C1.60647 7.25008 1.56306 7.25946 1.51727 7.24352C1.48778 7.2333 1.41925 7.19791 1.41925 7.09103C1.41925 7.00568 1.45872 6.92744 1.52753 6.87663C1.59649 6.82563 1.68564 6.81105 1.77175 6.83796C1.87797 6.87039 1.95217 6.98228 1.95217 7.11011C1.95217 7.20157 1.93258 7.294 1.89536 7.37763L1.3136 8.68642C1.26578 8.79395 1.2415 8.90833 1.2415 9.02608C1.2415 9.17762 1.31041 9.316 1.41888 9.40047C1.31045 9.48494 1.2415 9.62331 1.2415 9.77486C1.2415 9.89265 1.26583 10.007 1.3136 10.1145L1.89527 11.4232C1.93244 11.5068 1.95208 11.5993 1.95208 11.6907C1.95208 11.8186 1.87792 11.9304 1.77166 11.9629C1.68531 11.9898 1.59634 11.9754 1.52744 11.9242C1.45863 11.8734 1.41916 11.7952 1.41916 11.7098C1.41916 11.6029 1.48769 11.5676 1.51717 11.5573C1.56297 11.5413 1.60633 11.5505 1.62049 11.5684C1.63239 11.5835 1.63113 11.6248 1.58856 11.6918C1.56217 11.7331 1.57422 11.7881 1.61561 11.8144C1.65733 11.8408 1.71208 11.8286 1.73824 11.7872C1.85167 11.6093 1.79116 11.498 1.75984 11.4582C1.6967 11.3786 1.579 11.3512 1.46547 11.3882C1.50278 11.23 1.5371 11.0804 1.3931 10.9364C1.35841 10.9017 1.3022 10.9017 1.26752 10.9364C1.23283 10.9711 1.23283 11.0273 1.26752 11.0619C1.33863 11.1331 1.32939 11.1915 1.29189 11.3501C1.26944 11.4452 1.2415 11.5637 1.2415 11.7097C1.2415 11.8069 1.27567 11.8998 1.33314 11.9762H1.33028C1.2812 11.9762 1.24146 12.0159 1.24146 12.065C1.24146 12.1142 1.28116 12.1539 1.33028 12.1539H1.33314C1.27563 12.2302 1.2415 12.3231 1.2415 12.4203C1.2415 12.5664 1.26944 12.6849 1.29189 12.78C1.32935 12.9385 1.33867 12.997 1.26752 13.0681C1.23283 13.1028 1.23283 13.159 1.26752 13.1937C1.28486 13.211 1.3076 13.2197 1.33033 13.2197C1.35302 13.2197 1.3758 13.211 1.39314 13.1937C1.53714 13.0496 1.50278 12.9001 1.46552 12.7419C1.57905 12.7788 1.6968 12.7514 1.75989 12.6718C1.7912 12.6321 1.85177 12.5207 1.73828 12.3429C1.71199 12.3016 1.65709 12.2893 1.61566 12.3156C1.57427 12.342 1.56222 12.397 1.58861 12.4382C1.63117 12.5052 1.63244 12.5465 1.62053 12.5616C1.60642 12.5795 1.56302 12.5889 1.51722 12.5727C1.48774 12.5625 1.4192 12.5271 1.4192 12.4202C1.4192 12.3349 1.45867 12.2566 1.52749 12.2058C1.59644 12.1548 1.68559 12.1403 1.7717 12.1672C1.87792 12.1996 1.95213 12.3115 1.95213 12.4393C1.95213 12.5308 1.93253 12.6232 1.89531 12.7068L1.3136 14.0158C1.26578 14.1233 1.2415 14.2377 1.2415 14.3554C1.2415 14.507 1.31041 14.6453 1.41888 14.7298C1.31045 14.8143 1.2415 14.9527 1.2415 15.1042C1.2415 15.222 1.26583 15.3363 1.3136 15.4439L1.89527 16.7526C1.93244 16.8362 1.95208 16.9286 1.95208 17.0201C1.95208 17.148 1.87792 17.2598 1.77166 17.2922C1.68531 17.3191 1.59634 17.3046 1.52744 17.2536C1.45863 17.2027 1.41916 17.1245 1.41916 17.0392C1.41916 16.9323 1.48769 16.8969 1.51717 16.8867C1.56297 16.8707 1.60633 16.8799 1.62049 16.8978C1.63239 16.9129 1.63113 16.9542 1.58856 17.0212C1.56217 17.0625 1.57422 17.1174 1.61561 17.1438C1.65733 17.1702 1.71208 17.158 1.73824 17.1165C1.85167 16.9387 1.79116 16.8273 1.75984 16.7876C1.6967 16.7078 1.579 16.6805 1.46547 16.7175C1.50278 16.5593 1.5371 16.4098 1.3931 16.2657C1.35841 16.231 1.3022 16.231 1.26752 16.2657C1.23283 16.3004 1.23283 16.3566 1.26752 16.3913C1.33863 16.4624 1.32939 16.5209 1.29189 16.6794C1.26944 16.7745 1.2415 16.893 1.2415 17.039C1.2415 17.1782 1.3082 17.3108 1.41972 17.3943C1.3082 17.4779 1.2415 17.6104 1.2415 17.7496C1.2415 17.8957 1.26944 18.0142 1.29189 18.1093C1.32935 18.2678 1.33867 18.3263 1.26752 18.3974C1.23283 18.4321 1.23283 18.4883 1.26752 18.523C1.28486 18.5403 1.3076 18.549 1.33033 18.549C1.35302 18.549 1.3758 18.5403 1.39314 18.523C1.53714 18.3789 1.50278 18.2294 1.46552 18.0712C1.57905 18.1081 1.6968 18.0807 1.75989 18.0011C1.7912 17.9614 1.85177 17.85 1.73828 17.6722C1.71199 17.6309 1.65709 17.6188 1.61566 17.6449C1.57427 17.6713 1.56222 17.7263 1.58861 17.7675C1.63117 17.8345 1.63244 17.8758 1.62053 17.8909C1.60642 17.9088 1.56302 17.918 1.51722 17.902C1.48774 17.8918 1.4192 17.8564 1.4192 17.7495C1.4192 17.6642 1.45867 17.586 1.52749 17.5351C1.59644 17.4841 1.68559 17.4698 1.7717 17.4965C1.87792 17.5289 1.95213 17.6408 1.95213 17.7686C1.95213 17.8601 1.93253 17.9525 1.89653 18.0335C1.89081 18.0455 1.75506 18.3267 1.72009 18.4315C1.65095 18.6388 1.72122 18.7431 1.76917 18.7866C1.81019 18.8239 1.86302 18.8435 1.91702 18.8435C1.94763 18.8435 1.97866 18.8371 2.00791 18.8243C2.02019 18.8189 2.03031 18.811 2.04095 18.8037C2.05159 18.811 2.06177 18.8189 2.074 18.8243C2.1032 18.8371 2.13428 18.8435 2.16489 18.8435C2.21875 18.8435 2.27167 18.8239 2.31273 18.7866C2.36069 18.7431 2.43095 18.6388 2.36181 18.4315C2.32684 18.3267 2.19114 18.0455 2.18664 18.0361C2.14947 17.9525 2.12983 17.86 2.12983 17.7686C2.12983 17.6407 2.20398 17.5288 2.31025 17.4964C2.39664 17.4697 2.48556 17.4841 2.55447 17.5351C2.62328 17.586 2.66275 17.6641 2.66275 17.7495C2.66275 17.8564 2.59422 17.8917 2.56473 17.902C2.51912 17.918 2.47544 17.9088 2.46142 17.8909C2.44952 17.8758 2.45078 17.8345 2.49334 17.7675C2.51973 17.7262 2.50769 17.6713 2.4663 17.6449C2.42481 17.6189 2.37011 17.631 2.34367 17.6722C2.23023 17.85 2.29075 17.9613 2.32206 18.0011C2.3852 18.0807 2.50291 18.1081 2.61644 18.0711C2.57912 18.2293 2.54481 18.3789 2.68881 18.5229C2.70616 18.5403 2.72889 18.549 2.75162 18.549C2.77436 18.549 2.79709 18.5403 2.81444 18.5229C2.84912 18.4882 2.84912 18.432 2.81444 18.3974C2.74333 18.3262 2.75256 18.2678 2.79006 18.1092C2.81251 18.0142 2.84045 17.8957 2.84045 17.7496C2.84045 17.6104 2.77375 17.4778 2.66223 17.3943C2.77375 17.3108 2.84045 17.1782 2.84045 17.039C2.84045 16.8929 2.81251 16.7744 2.79006 16.6793C2.75261 16.5208 2.74328 16.4623 2.81444 16.3912C2.84912 16.3565 2.84912 16.3003 2.81444 16.2656C2.77975 16.2309 2.72355 16.2309 2.68886 16.2656C2.54486 16.4097 2.57922 16.5592 2.61648 16.7175C2.50295 16.6804 2.3852 16.7077 2.32211 16.7875C2.2908 16.8272 2.23023 16.9386 2.34372 17.1164C2.37011 17.1577 2.42467 17.1698 2.46634 17.1437C2.50773 17.1173 2.51978 17.0623 2.49339 17.0211C2.45083 16.9541 2.44956 16.9128 2.46147 16.8977C2.47553 16.8798 2.51912 16.8706 2.56478 16.8866C2.59426 16.8968 2.6628 16.9322 2.6628 17.0391C2.6628 17.1244 2.62333 17.2027 2.55451 17.2535C2.48556 17.3045 2.39631 17.319 2.3103 17.2921C2.20408 17.2597 2.12988 17.1478 2.12988 17.02C2.12988 16.9285 2.14947 16.8361 2.18669 16.7525L2.76836 15.4438C2.81617 15.3362 2.84045 15.2219 2.84045 15.1041C2.84045 14.9526 2.77155 14.8142 2.66308 14.7297C2.7715 14.6453 2.84045 14.5069 2.84045 14.3553C2.84045 14.2375 2.81612 14.1232 2.76836 14.0157L2.18673 12.7071C2.14956 12.6234 2.12992 12.531 2.12992 12.4396C2.12992 12.3117 2.20408 12.1998 2.31034 12.1674C2.39673 12.1407 2.48566 12.1551 2.55456 12.2061C2.62337 12.2569 2.66284 12.3351 2.66284 12.4205C2.66284 12.5274 2.59431 12.5627 2.56483 12.573C2.51922 12.5891 2.47553 12.5798 2.46152 12.5619C2.44961 12.5468 2.45087 12.5055 2.49344 12.4385C2.51983 12.3972 2.50778 12.3422 2.46639 12.3159C2.42491 12.2898 2.3702 12.302 2.34377 12.3431C2.23033 12.521 2.29084 12.6323 2.32216 12.6721C2.3853 12.7516 2.503 12.7791 2.61653 12.7421C2.57922 12.9003 2.54491 13.0499 2.68891 13.1939C2.70625 13.2113 2.72898 13.2199 2.75172 13.2199C2.77445 13.2199 2.79719 13.2113 2.81453 13.1939C2.84922 13.1592 2.84922 13.103 2.81453 13.0683C2.74342 12.9972 2.75266 12.9388 2.79016 12.7802C2.81261 12.6851 2.84055 12.5666 2.84055 12.4206C2.84055 12.3234 2.80637 12.2304 2.74891 12.1541H2.75176C2.80084 12.1541 2.84059 12.1144 2.84059 12.0653C2.84059 12.0162 2.80089 11.9764 2.75176 11.9764H2.74891C2.80642 11.9001 2.84055 11.8072 2.84055 11.7099C2.84055 11.5639 2.81261 11.4454 2.79016 11.3503C2.7527 11.1917 2.74337 11.1333 2.81453 11.0622C2.84922 11.0275 2.84922 10.9713 2.81453 10.9366C2.77984 10.9019 2.72364 10.9019 2.68895 10.9366C2.54495 11.0807 2.57931 11.2302 2.61658 11.3884C2.50305 11.3515 2.3853 11.3789 2.3222 11.4585C2.29089 11.4982 2.23033 11.6095 2.34381 11.7874C2.3702 11.8287 2.42477 11.8407 2.46644 11.8147C2.50783 11.7883 2.51987 11.7333 2.49348 11.692C2.45092 11.6251 2.44966 11.5838 2.46156 11.5687C2.47562 11.5508 2.51922 11.5416 2.56487 11.5576C2.59436 11.5678 2.66289 11.6032 2.66289 11.71C2.66289 11.7954 2.62342 11.8736 2.55461 11.9244C2.48566 11.9754 2.39641 11.9898 2.31039 11.9631C2.20417 11.9307 2.12997 11.8188 2.12997 11.691C2.12997 11.5995 2.14956 11.5071 2.18678 11.4234L2.76845 10.1147C2.81626 10.0072 2.84055 9.89284 2.84055 9.77509C2.84055 9.62355 2.77164 9.48517 2.66317 9.4007C2.77159 9.31623 2.84055 9.17786 2.84055 9.02631C2.84055 8.90852 2.81622 8.79419 2.76845 8.68666L2.18678 7.37796C2.14961 7.29433 2.12997 7.20189 2.12997 7.11044C2.12997 6.98257 2.20412 6.87072 2.31039 6.83829C2.39678 6.81157 2.4857 6.82596 2.55461 6.87696C2.62342 6.92782 2.66289 7.006 2.66289 7.09136C2.66289 7.19824 2.59436 7.23358 2.56487 7.24385C2.51927 7.25983 2.47558 7.25041 2.46156 7.23274C2.44966 7.21764 2.45092 7.17635 2.49348 7.10936C2.51987 7.06807 2.50783 7.01308 2.46644 6.98674C2.42495 6.96072 2.37025 6.97268 2.34381 7.01397C2.23037 7.19182 2.29089 7.30314 2.3222 7.34289C2.38534 7.42249 2.50305 7.44991 2.61658 7.41292C2.57926 7.57113 2.54495 7.72071 2.68895 7.86475C2.7063 7.8821 2.72903 7.89077 2.75176 7.89077C2.7745 7.89077 2.79723 7.8821 2.81458 7.86475C2.84926 7.83006 2.84926 7.77386 2.81458 7.73917C2.74347 7.66806 2.7527 7.60961 2.7902 7.45103C2.81266 7.35597 2.84059 7.23747 2.84059 7.09141C2.84059 6.99424 2.80642 6.90128 2.74895 6.82493H2.75181C2.80089 6.82493 2.84064 6.78522 2.84064 6.7361C2.84064 6.68702 2.80094 6.64727 2.75181 6.64727H2.74895C2.80647 6.57091 2.84059 6.47805 2.84059 6.38079C2.84031 6.23449 2.81237 6.11599 2.78997 6.02093ZM1.88856 5.64241C1.85702 5.54773 1.86803 5.49377 1.88884 5.47483C1.90244 5.46199 1.92306 5.46251 1.93614 5.46841C1.95217 5.47554 1.95217 5.48683 1.95217 5.49237C1.95217 5.54144 1.99188 5.58119 2.041 5.58119C2.09008 5.58119 2.12983 5.54149 2.12983 5.49237C2.12983 5.48683 2.12983 5.47554 2.14586 5.46841C2.1587 5.46251 2.17919 5.46199 2.19316 5.47483C2.21397 5.49377 2.22498 5.54773 2.19344 5.64241C2.17047 5.71108 2.08736 5.88986 2.04105 5.9869C1.99567 5.89211 1.91167 5.71155 1.88856 5.64241ZM2.04095 9.30733C2.06645 9.34197 2.09528 9.37422 2.13034 9.40047C2.09528 9.42676 2.06645 9.45897 2.04095 9.49361C2.01545 9.45897 1.98663 9.42672 1.95156 9.40047C1.98663 9.37417 2.01545 9.34202 2.04095 9.30733ZM2.04095 14.6366C2.06645 14.6713 2.09528 14.7035 2.13034 14.7298C2.09528 14.7561 2.06645 14.7883 2.04095 14.8229C2.01545 14.7883 1.98663 14.756 1.95156 14.7298C1.98663 14.7035 2.01545 14.6714 2.04095 14.6366ZM2.1933 18.4879C2.22484 18.5826 2.21383 18.6365 2.19302 18.6555C2.17905 18.6681 2.15856 18.6676 2.14572 18.6619C2.12969 18.6547 2.12969 18.6435 2.12969 18.6379C2.12969 18.5888 2.08998 18.5491 2.04086 18.5491C1.99173 18.5491 1.95203 18.5888 1.95203 18.6379C1.95203 18.6434 1.95203 18.6547 1.936 18.6619C1.92297 18.6676 1.90234 18.6682 1.8887 18.6555C1.86789 18.6365 1.85688 18.5826 1.88842 18.4879C1.91139 18.4192 1.9945 18.2404 2.04081 18.1434C2.08619 18.2381 2.17019 18.4187 2.1933 18.4879ZM2.1295 17.3944C2.09589 17.4206 2.06608 17.4519 2.04095 17.4873C2.01588 17.4519 1.98602 17.4206 1.95241 17.3944C1.98602 17.3683 2.01583 17.337 2.04095 17.3016C2.06603 17.337 2.09584 17.3683 2.1295 17.3944ZM2.60584 15.3716L2.04091 16.6427L1.47597 15.3716C1.4388 15.288 1.41916 15.1956 1.41916 15.1041C1.41916 14.9762 1.49331 14.8643 1.59958 14.832C1.68592 14.8052 1.77499 14.8196 1.8438 14.8706C1.91261 14.9215 1.95208 14.9997 1.95208 15.085C1.95208 15.1919 1.88355 15.2273 1.85406 15.2375C1.80827 15.2535 1.76472 15.2443 1.75075 15.2264C1.73884 15.2113 1.74011 15.17 1.78267 15.103C1.80906 15.0617 1.79702 15.0068 1.75563 14.9804C1.71414 14.9544 1.65944 14.9665 1.633 15.0077C1.51956 15.1855 1.58008 15.2969 1.61139 15.3366C1.6757 15.4178 1.79669 15.4457 1.91238 15.4053C1.92555 15.4007 1.93891 15.3951 1.95208 15.3884V15.613C1.95208 15.6129 1.95194 15.6128 1.95194 15.6128C1.94927 15.5661 1.91055 15.5292 1.8633 15.5292C1.81422 15.5292 1.77447 15.5689 1.77447 15.618C1.77447 15.6759 1.81497 15.7764 1.95208 15.8076V15.9733C1.95208 16.0223 1.99178 16.0621 2.04091 16.0621C2.09003 16.0621 2.12973 16.0224 2.12973 15.9733V15.8076C2.26684 15.7764 2.30734 15.6759 2.30734 15.618C2.30734 15.5689 2.26773 15.5263 2.2187 15.5263C2.16962 15.5263 2.13006 15.5631 2.13006 15.6121C2.13002 15.6123 2.12973 15.6125 2.12969 15.6127V15.3885C2.14286 15.3952 2.15622 15.4008 2.16939 15.4054C2.28508 15.4458 2.40602 15.4178 2.47037 15.3367C2.50169 15.297 2.56225 15.1856 2.44877 15.0078C2.42237 14.9665 2.36758 14.9543 2.32614 14.9805C2.28475 15.0069 2.2727 15.0619 2.29909 15.1031C2.34166 15.1701 2.34292 15.2114 2.33102 15.2265C2.31695 15.2444 2.27341 15.2536 2.2277 15.2376C2.19822 15.2274 2.12969 15.192 2.12969 15.0851C2.12969 14.9998 2.16916 14.9215 2.23797 14.8707C2.30692 14.8197 2.39617 14.8051 2.48219 14.8321C2.58841 14.8645 2.66261 14.9764 2.66261 15.1042C2.6627 15.1956 2.64311 15.288 2.60584 15.3716ZM2.60584 14.0879C2.64301 14.1715 2.66266 14.264 2.66266 14.3554C2.66266 14.4833 2.5885 14.5951 2.48223 14.6276C2.39603 14.6545 2.30683 14.6399 2.23802 14.5889C2.1692 14.5381 2.12973 14.4599 2.12973 14.3745C2.12973 14.2676 2.19827 14.2323 2.22775 14.222C2.27345 14.206 2.31705 14.2152 2.33106 14.2331C2.34297 14.2482 2.3417 14.2895 2.29914 14.3565C2.27275 14.3978 2.2848 14.4527 2.32619 14.4791C2.36791 14.5055 2.42266 14.4933 2.44881 14.4518C2.56225 14.274 2.50173 14.1627 2.47042 14.1229C2.40606 14.0417 2.28512 14.0141 2.16944 14.0543C2.15627 14.0588 2.14291 14.0645 2.12973 14.0712V13.8465L2.12988 13.8468C2.13255 13.8934 2.17127 13.9304 2.21852 13.9304C2.26759 13.9304 2.30734 13.8907 2.30734 13.8416C2.30734 13.7836 2.26684 13.6831 2.12973 13.652V13.4863C2.12973 13.4372 2.09003 13.3975 2.04091 13.3975C1.99178 13.3975 1.95208 13.4372 1.95208 13.4863V13.652C1.81497 13.6831 1.77447 13.7836 1.77447 13.8416C1.77447 13.8907 1.81408 13.9333 1.86311 13.9333C1.91219 13.9333 1.95175 13.8965 1.95175 13.8474C1.9518 13.8473 1.95208 13.8471 1.95208 13.8471L1.95213 14.0711C1.93895 14.0644 1.92559 14.0588 1.91242 14.0542C1.79674 14.0141 1.67575 14.0417 1.61144 14.1229C1.58013 14.1626 1.51956 14.274 1.63305 14.4518C1.65944 14.4931 1.71424 14.5051 1.75567 14.4791C1.79706 14.4527 1.80911 14.3977 1.78272 14.3565C1.74016 14.2895 1.73889 14.2482 1.7508 14.2331C1.76477 14.2152 1.80831 14.206 1.85411 14.222C1.88359 14.2322 1.95213 14.2676 1.95213 14.3745C1.95213 14.4598 1.91266 14.5381 1.84384 14.5889C1.77489 14.6399 1.68583 14.6544 1.59963 14.6275C1.49341 14.5951 1.4192 14.4832 1.4192 14.3554C1.4192 14.2639 1.4388 14.1715 1.47602 14.0879L2.04095 12.8168L2.60584 14.0879ZM2.1295 12.0652C2.09589 12.0913 2.06608 12.1226 2.04095 12.158C2.01588 12.1226 1.98602 12.0914 1.95241 12.0652C1.98602 12.039 2.01583 12.0077 2.04095 11.9723C2.06603 12.0077 2.09584 12.039 2.1295 12.0652ZM2.60584 10.0424L2.04091 11.3134L1.47597 10.0424C1.4388 9.95875 1.41916 9.86631 1.41916 9.77486C1.41916 9.64698 1.49331 9.53514 1.59958 9.5027C1.68592 9.47598 1.77499 9.49037 1.8438 9.54137C1.91261 9.59223 1.95208 9.67042 1.95208 9.75578C1.95208 9.86265 1.88355 9.898 1.85406 9.90826C1.80827 9.92439 1.76472 9.91506 1.75075 9.89715C1.73884 9.88206 1.74011 9.84076 1.78267 9.77378C1.80906 9.73248 1.79702 9.6775 1.75563 9.65115C1.71414 9.625 1.65944 9.63709 1.633 9.67844C1.51956 9.85628 1.58008 9.96761 1.61139 10.0074C1.6757 10.0885 1.79669 10.1163 1.91238 10.076C1.92555 10.0715 1.93891 10.0658 1.95208 10.0591V10.2837L1.95194 10.2835C1.94927 10.2368 1.91055 10.1998 1.8633 10.1998C1.81422 10.1998 1.77447 10.2395 1.77447 10.2887C1.77447 10.3466 1.81497 10.4471 1.95208 10.4782V10.6439C1.95208 10.693 1.99178 10.7327 2.04091 10.7327C2.09003 10.7327 2.12973 10.693 2.12973 10.6439V10.4782C2.26684 10.4471 2.30734 10.3466 2.30734 10.2887C2.30734 10.2396 2.26773 10.1969 2.2187 10.1969C2.16962 10.1969 2.13006 10.2337 2.13006 10.2827C2.13002 10.2829 2.12973 10.2831 2.12973 10.2831L2.12969 10.0591C2.14286 10.0658 2.15622 10.0714 2.16939 10.076C2.28508 10.1162 2.40602 10.0885 2.47037 10.0073C2.50169 9.96761 2.56225 9.85623 2.44877 9.67839C2.42237 9.63691 2.36758 9.62481 2.32614 9.65111C2.28475 9.6775 2.2727 9.73248 2.29909 9.77373C2.34166 9.84072 2.34292 9.88201 2.33102 9.89711C2.31695 9.91497 2.27341 9.92439 2.2277 9.90822C2.19822 9.898 2.12969 9.86261 2.12969 9.75573C2.12969 9.67037 2.16916 9.59214 2.23797 9.54133C2.30692 9.49033 2.39617 9.47594 2.48219 9.50266C2.58841 9.53509 2.66261 9.64698 2.66261 9.77481C2.6627 9.86631 2.64311 9.95875 2.60584 10.0424ZM2.60584 8.75861C2.64301 8.84223 2.66266 8.93467 2.66266 9.02612C2.66266 9.154 2.5885 9.26584 2.48223 9.29828C2.39603 9.32519 2.30683 9.31061 2.23802 9.25961C2.1692 9.20875 2.12973 9.13056 2.12973 9.0452C2.12973 8.93833 2.19827 8.90298 2.22775 8.89272C2.27345 8.87673 2.31705 8.88592 2.33106 8.90383C2.34297 8.91892 2.3417 8.96022 2.29914 9.0272C2.27275 9.0685 2.2848 9.12344 2.32619 9.14983C2.36791 9.17598 2.42266 9.16403 2.44881 9.12255C2.56225 8.9447 2.50173 8.83338 2.47042 8.79363C2.40606 8.71244 2.28512 8.68469 2.16944 8.72495C2.15627 8.7295 2.14291 8.73517 2.12973 8.74188V8.51725C2.12973 8.5173 2.12988 8.51739 2.12988 8.51739C2.13255 8.56417 2.17127 8.60106 2.21852 8.60106C2.26759 8.60106 2.30734 8.56136 2.30734 8.51224C2.30734 8.4543 2.26684 8.3538 2.12973 8.32267V8.15697C2.12973 8.10789 2.09003 8.06814 2.04091 8.06814C1.99178 8.06814 1.95208 8.10785 1.95208 8.15697V8.32267C1.81497 8.3538 1.77447 8.4543 1.77447 8.51224C1.77447 8.56131 1.81408 8.60402 1.86311 8.60402C1.91219 8.60402 1.95175 8.56722 1.95175 8.51814C1.9518 8.518 1.95208 8.51777 1.95213 8.51763V8.74183C1.93895 8.73513 1.92559 8.72945 1.91242 8.72491C1.79674 8.68469 1.67575 8.71244 1.61144 8.79358C1.58013 8.83328 1.51956 8.94466 1.63305 9.1225C1.65944 9.1638 1.71424 9.1758 1.75567 9.14978C1.79706 9.12339 1.80911 9.06841 1.78272 9.02716C1.74016 8.96017 1.73889 8.91887 1.7508 8.90378C1.76477 8.88592 1.80831 8.87673 1.85411 8.89267C1.88359 8.90289 1.95213 8.93828 1.95213 9.04516C1.95213 9.13052 1.91266 9.20875 1.84384 9.25956C1.77489 9.31056 1.68583 9.32514 1.59963 9.29823C1.49341 9.2658 1.4192 9.15391 1.4192 9.02608C1.4192 8.93463 1.4388 8.84219 1.47602 8.75856L2.04095 7.4875L2.60584 8.75861ZM1.95236 6.73586C1.98597 6.70971 2.01578 6.67839 2.04091 6.643C2.06598 6.67839 2.09584 6.70966 2.12945 6.73586C2.09584 6.76202 2.06603 6.79333 2.04091 6.82872C2.01583 6.79333 1.98602 6.76202 1.95236 6.73586Z" fill="#FFE15A"/>
<path d="M12.6912 13.1548C13.8719 13.1548 14.829 12.1977 14.829 11.017C14.829 9.83638 13.8719 8.87927 12.6912 8.87927C11.5106 8.87927 10.5535 9.83638 10.5535 11.017C10.5535 12.1977 11.5106 13.1548 12.6912 13.1548Z" fill="#FFE15A"/>
<path d="M12.8515 8.29145C12.8515 8.38 12.7797 8.45181 12.6911 8.45181C12.6026 8.45181 12.5308 8.38 12.5308 8.29145C12.5308 8.20291 12.6911 7.81042 12.6911 7.81042C12.6911 7.81042 12.8515 8.20291 12.8515 8.29145Z" fill="#FFE15A"/>
<path d="M12.5308 13.743C12.5308 13.6545 12.6026 13.5826 12.6911 13.5826C12.7797 13.5826 12.8515 13.6545 12.8515 13.743C12.8515 13.8315 12.6911 14.224 12.6911 14.224C12.6911 14.224 12.5308 13.8316 12.5308 13.743Z" fill="#FFE15A"/>
<path d="M15.4172 11.1775C15.3286 11.1775 15.2568 11.1057 15.2568 11.0172C15.2568 10.9286 15.3286 10.8568 15.4172 10.8568C15.5057 10.8568 15.8982 11.0172 15.8982 11.0172C15.8982 11.0172 15.5057 11.1775 15.4172 11.1775Z" fill="#FFE15A"/>
<path d="M9.96541 10.8569C10.054 10.8569 10.1258 10.9287 10.1258 11.0173C10.1258 11.1058 10.054 11.1777 9.96541 11.1777C9.87686 11.1777 9.48438 11.0173 9.48438 11.0173C9.48438 11.0173 9.87686 10.8569 9.96541 10.8569Z" fill="#FFE15A"/>
<path d="M14.7325 9.2032C14.6699 9.26582 14.5684 9.26582 14.5057 9.2032C14.4431 9.14057 14.4431 9.03909 14.5057 8.97642C14.5683 8.91374 14.9592 8.74963 14.9592 8.74963C14.9592 8.74963 14.7952 9.14057 14.7325 9.2032Z" fill="#FFE15A"/>
<path d="M10.6506 12.8314C10.7132 12.7688 10.8147 12.7688 10.8774 12.8314C10.94 12.894 10.94 12.9955 10.8774 13.0582C10.8147 13.1208 10.4238 13.2849 10.4238 13.2849C10.4238 13.2849 10.5879 12.8941 10.6506 12.8314Z" fill="#FFE15A"/>
<path d="M14.5057 13.0581C14.4431 12.9954 14.4431 12.894 14.5057 12.8313C14.5683 12.7686 14.6698 12.7687 14.7325 12.8313C14.7951 12.8939 14.9592 13.2848 14.9592 13.2848C14.9592 13.2848 14.5683 13.1206 14.5057 13.0581Z" fill="#FFE15A"/>
<path d="M10.8771 8.97624C10.9398 9.03887 10.9398 9.14035 10.8771 9.20302C10.8145 9.26569 10.713 9.26564 10.6504 9.20302C10.5877 9.14039 10.4236 8.74951 10.4236 8.74951C10.4236 8.74951 10.8145 8.91366 10.8771 8.97624Z" fill="#FFE15A"/>
<path d="M11.7964 8.43744C11.8303 8.51928 11.7914 8.61303 11.7096 8.64692C11.6277 8.68082 11.534 8.64196 11.5001 8.56011C11.4662 8.47827 11.4641 8.05432 11.4641 8.05432C11.4641 8.05432 11.7625 8.35559 11.7964 8.43744Z" fill="#FFE15A"/>
<path d="M13.5867 13.597C13.5528 13.5151 13.5917 13.4214 13.6735 13.3875C13.7553 13.3536 13.8491 13.3925 13.883 13.4743C13.9169 13.5561 13.9189 13.9801 13.9189 13.9801C13.9189 13.9801 13.6205 13.6788 13.5867 13.597Z" fill="#FFE15A"/>
<path d="M15.2711 10.1223C15.1892 10.1562 15.0955 10.1173 15.0616 10.0355C15.0277 9.95364 15.0665 9.85988 15.1484 9.82599C15.2302 9.7921 15.6541 9.79004 15.6541 9.79004C15.6541 9.79004 15.3529 10.0884 15.2711 10.1223Z" fill="#FFE15A"/>
<path d="M10.1116 11.9122C10.1935 11.8783 10.2872 11.9171 10.3211 11.999C10.355 12.0808 10.3161 12.1746 10.2343 12.2085C10.1524 12.2424 9.72852 12.2444 9.72852 12.2444C9.72852 12.2444 10.0298 11.9461 10.1116 11.9122Z" fill="#FFE15A"/>
<path d="M13.8827 8.56017C13.8488 8.64202 13.755 8.68083 13.6733 8.64699C13.5914 8.6131 13.5526 8.5193 13.5864 8.4375C13.6203 8.35571 13.9186 8.05444 13.9186 8.05444C13.9186 8.05444 13.9166 8.47838 13.8827 8.56017Z" fill="#FFE15A"/>
<path d="M11.5003 13.4743C11.5342 13.3924 11.628 13.3536 11.7098 13.3875C11.7916 13.4214 11.8304 13.5152 11.7966 13.5969C11.7627 13.6788 11.4644 13.98 11.4644 13.98C11.4644 13.98 11.4664 13.5561 11.5003 13.4743Z" fill="#FFE15A"/>
<path d="M15.1481 12.2084C15.0663 12.1745 15.0275 12.0807 15.0613 11.9989C15.0952 11.9171 15.189 11.8783 15.2708 11.9121C15.3526 11.946 15.6538 12.2443 15.6538 12.2443C15.6538 12.2443 15.2299 12.2424 15.1481 12.2084Z" fill="#FFE15A"/>
<path d="M10.2342 9.82607C10.3161 9.85996 10.3549 9.95375 10.3211 10.0356C10.2872 10.1173 10.1934 10.1562 10.1116 10.1224C10.0298 10.0885 9.72852 9.79016 9.72852 9.79016C9.72852 9.79016 10.1525 9.79213 10.2342 9.82607Z" fill="#FFE15A"/>
<path d="M12.317 8.31235C12.3343 8.3992 12.2779 8.48362 12.191 8.50087C12.1041 8.51817 12.0197 8.46178 12.0024 8.37488C11.9851 8.28802 12.0659 7.87183 12.0659 7.87183C12.0659 7.87183 12.2997 8.22549 12.317 8.31235Z" fill="#FFE15A"/>
<path d="M13.0659 13.7219C13.0486 13.6351 13.105 13.5506 13.1919 13.5334C13.2788 13.5161 13.3631 13.5725 13.3804 13.6594C13.3977 13.7463 13.317 14.1625 13.317 14.1625C13.317 14.1625 13.0831 13.8088 13.0659 13.7219Z" fill="#FFE15A"/>
<path d="M15.3962 10.6425C15.3094 10.6598 15.225 10.6034 15.2077 10.5165C15.1904 10.4296 15.2468 10.3452 15.3337 10.328C15.4206 10.3107 15.8368 10.3914 15.8368 10.3914C15.8368 10.3914 15.4831 10.6253 15.3962 10.6425Z" fill="#FFE15A"/>
<path d="M9.98668 11.3918C10.0735 11.3745 10.158 11.4309 10.1752 11.5178C10.1925 11.6047 10.1361 11.6891 10.0492 11.7063C9.96235 11.7236 9.54614 11.6429 9.54614 11.6429C9.54614 11.6429 9.89982 11.409 9.98668 11.3918Z" fill="#FFE15A"/>
<path d="M14.3388 8.83979C14.2897 8.91343 14.1901 8.93321 14.1164 8.884C14.0428 8.83478 14.023 8.73522 14.0722 8.66158C14.1214 8.58794 14.4728 8.35071 14.4728 8.35071C14.4728 8.35071 14.388 8.76611 14.3388 8.83979Z" fill="#FFE15A"/>
<path d="M11.0441 13.1947C11.0933 13.121 11.1929 13.1013 11.2665 13.1505C11.3401 13.1996 11.3599 13.2993 11.3107 13.3729C11.2615 13.4465 10.9102 13.6838 10.9102 13.6838C10.9102 13.6838 10.9949 13.2684 11.0441 13.1947Z" fill="#FFE15A"/>
<path d="M14.8686 12.6649C14.795 12.6157 14.7752 12.5161 14.8244 12.4425C14.8736 12.3688 14.9732 12.3491 15.0469 12.3983C15.1205 12.4475 15.3578 12.7988 15.3578 12.7988C15.3578 12.7988 14.9423 12.7141 14.8686 12.6649Z" fill="#FFE15A"/>
<path d="M10.5143 9.36951C10.5879 9.41868 10.6077 9.51829 10.5585 9.59193C10.5093 9.66557 10.4097 9.68535 10.336 9.63613C10.2624 9.58692 10.0251 9.2356 10.0251 9.2356C10.0251 9.2356 10.4407 9.32034 10.5143 9.36951Z" fill="#FFE15A"/>
<path d="M11.3107 8.66165C11.3599 8.73529 11.3401 8.83485 11.2665 8.88407C11.1929 8.93329 11.0933 8.91346 11.0441 8.83987C10.9949 8.76623 10.9102 8.35083 10.9102 8.35083C10.9102 8.35083 11.2615 8.58806 11.3107 8.66165Z" fill="#FFE15A"/>
<path d="M14.0727 13.3729C14.0235 13.2992 14.0433 13.1997 14.1169 13.1504C14.1905 13.1013 14.2901 13.1211 14.3393 13.1946C14.3885 13.2683 14.4733 13.6837 14.4733 13.6837C14.4733 13.6837 14.1219 13.4465 14.0727 13.3729Z" fill="#FFE15A"/>
<path d="M15.0471 9.63614C14.9734 9.68531 14.8739 9.66553 14.8246 9.59193C14.7755 9.5183 14.7952 9.41873 14.8688 9.36952C14.9425 9.32034 15.3579 9.2356 15.3579 9.2356C15.3579 9.2356 15.1207 9.58697 15.0471 9.63614Z" fill="#FFE15A"/>
<path d="M10.3362 12.3982C10.4099 12.3491 10.5094 12.3689 10.5586 12.4425C10.6078 12.5161 10.588 12.6157 10.5144 12.6649C10.4408 12.7141 10.0254 12.7988 10.0254 12.7988C10.0254 12.7988 10.2626 12.4474 10.3362 12.3982Z" fill="#FFE15A"/>
<path d="M13.3804 8.37488C13.3631 8.46174 13.2787 8.51818 13.1919 8.50088C13.105 8.48359 13.0486 8.39921 13.0659 8.31235C13.0832 8.22549 13.317 7.87183 13.317 7.87183C13.317 7.87183 13.3976 8.28803 13.3804 8.37488Z" fill="#FFE15A"/>
<path d="M12.0027 13.6594C12.02 13.5725 12.1043 13.5161 12.1912 13.5334C12.2781 13.5507 12.3345 13.6351 12.3172 13.7219C12.2999 13.8088 12.0661 14.1624 12.0661 14.1624C12.0661 14.1624 11.9854 13.7462 12.0027 13.6594Z" fill="#FFE15A"/>
<path d="M15.3337 11.7063C15.2468 11.689 15.1904 11.6047 15.2077 11.5178C15.225 11.4309 15.3094 11.3745 15.3962 11.3918C15.4831 11.4091 15.8368 11.6429 15.8368 11.6429C15.8368 11.6429 15.4206 11.7236 15.3337 11.7063Z" fill="#FFE15A"/>
<path d="M10.0492 10.3282C10.1361 10.3455 10.1925 10.4299 10.1752 10.5168C10.1579 10.6036 10.0735 10.6601 9.98667 10.6428C9.89981 10.6255 9.54614 10.3916 9.54614 10.3916C9.54614 10.3916 9.96234 10.311 10.0492 10.3282Z" fill="#FFE15A"/>
<path d="M17.7202 11.5798C17.6576 11.5535 17.586 11.5837 17.5599 11.6459C17.5599 11.6462 17.5599 11.6462 17.5599 11.6462C17.5594 11.6474 17.557 11.6531 17.5528 11.663C17.4602 11.8794 17.2684 12.1958 17.0748 12.4934C17.2552 11.913 17.42 11.293 17.4315 11.2494C17.4487 11.1843 17.4102 11.1174 17.3452 11.0998C17.2801 11.0823 17.2131 11.1202 17.1949 11.185C17.1108 11.4865 16.9387 11.8833 16.7799 12.2192C16.809 11.8447 16.8145 11.4977 16.8149 11.4726C16.8159 11.4062 16.7639 11.3514 16.6976 11.3483C16.6352 11.3502 16.575 11.3957 16.5701 11.462C16.4131 13.6214 14.3352 14.5874 14.1328 14.6763C14.027 14.6868 13.5339 14.7424 13.0864 14.8978C13.0357 14.9154 12.9925 14.9331 12.9494 14.9506C12.9335 14.9446 12.9163 14.9412 12.8983 14.9423C11.5247 15.0417 10.4295 14.4782 9.64243 13.2711C9.04772 12.359 8.86121 11.4016 8.85938 11.3921C8.84682 11.3255 8.78307 11.2826 8.71623 11.2944C8.64966 11.3071 8.60593 11.371 8.61854 11.4376C8.62351 11.464 8.70535 11.8819 8.93073 12.4319C8.62918 11.9558 8.41904 11.3792 8.34507 11.0789C8.34357 11.0729 8.33973 11.0683 8.33748 11.0628C8.33401 11.0543 8.3311 11.0458 8.32599 11.0384C8.32238 11.0332 8.31765 11.0294 8.31338 11.0249C8.30668 11.0178 8.30026 11.0108 8.29206 11.0056C8.28737 11.0025 8.28212 11.001 8.27701 10.9986C8.26796 10.9944 8.2591 10.9902 8.24902 10.9883C8.24204 10.9869 8.23492 10.9878 8.22765 10.9877C8.22029 10.9876 8.21335 10.9857 8.20581 10.987C8.20417 10.9873 8.2029 10.9884 8.20126 10.9888C8.19967 10.9891 8.19817 10.9886 8.19657 10.989C8.19001 10.9906 8.18499 10.9947 8.17899 10.9973C8.17135 11.0006 8.16353 11.0031 8.15682 11.0077C8.15021 11.0123 8.14529 11.0182 8.13981 11.0238C8.13432 11.0295 8.1286 11.0344 8.12429 11.0409C8.11993 11.0476 8.11759 11.055 8.11449 11.0624C8.11154 11.0695 8.10812 11.0763 8.10657 11.084C8.10498 11.0919 8.10568 11.1001 8.10573 11.1084C8.10573 11.115 8.1039 11.1213 8.10507 11.1281C8.10554 11.131 8.10648 11.1339 8.10699 11.1367V11.1372C8.10713 11.1377 8.10732 11.1384 8.10746 11.139C8.18331 11.5858 8.36406 12.049 8.52751 12.4023C8.26796 12.1078 8.05107 11.7684 7.9742 11.5675C7.97199 11.5616 7.96754 11.5576 7.96454 11.5523C7.95999 11.5442 7.95601 11.5359 7.94987 11.5292C7.94551 11.5244 7.94021 11.5213 7.93524 11.5173C7.92779 11.5113 7.92071 11.5053 7.91209 11.5012C7.90656 11.4985 7.90056 11.4977 7.8947 11.4959C7.88565 11.4931 7.87689 11.4901 7.86728 11.4895C7.85973 11.489 7.85223 11.4909 7.84459 11.4919C7.83751 11.4928 7.83053 11.4919 7.8235 11.4941C7.82214 11.4946 7.8212 11.4956 7.81993 11.4961C7.81862 11.4965 7.81731 11.4962 7.816 11.4968C7.80934 11.4993 7.8046 11.5042 7.79865 11.5077C7.79167 11.5118 7.78421 11.5153 7.77826 11.5206C7.77217 11.5261 7.76795 11.5329 7.76317 11.5394C7.75862 11.5456 7.75356 11.551 7.75018 11.5579C7.74667 11.5651 7.74536 11.5728 7.74334 11.5806C7.74132 11.5881 7.73865 11.5951 7.73814 11.6031C7.73757 11.611 7.73954 11.6189 7.74057 11.6269C7.74146 11.6339 7.74053 11.6408 7.74268 11.6476C7.87609 12.0779 8.1969 12.5899 8.44824 12.9505C8.23881 12.7891 8.08487 12.6146 8.0402 12.5619C8.03537 12.5562 8.03064 12.5504 8.02581 12.5447C7.98259 12.4927 7.90623 12.4853 7.85387 12.5277C7.8017 12.5703 7.7935 12.647 7.83568 12.6993C7.83798 12.7022 7.84717 12.7137 7.86254 12.7317C8.04648 12.9505 8.24687 13.1548 8.42841 13.3272L8.18007 13.2214C8.12345 13.197 8.05689 13.219 8.0259 13.2728C7.99487 13.3268 8.00889 13.395 8.05857 13.4323C8.08276 13.4503 8.52254 13.7788 8.90326 13.973C8.86735 13.9752 8.82521 13.9725 8.77805 13.9689C8.72049 13.9634 8.66387 14.0046 8.64985 14.063C8.63607 14.1217 8.66673 14.1816 8.72241 14.2045C8.73179 14.2084 8.8478 14.2562 8.99105 14.3072C8.95763 14.3209 8.93105 14.3489 8.92004 14.3853C8.90354 14.4397 8.92674 14.4986 8.97605 14.5268C8.9889 14.5342 9.16219 14.6336 9.37665 14.7217C9.37093 14.7306 9.36624 14.7401 9.36272 14.7507C9.34594 14.8021 9.36511 14.8587 9.40979 14.8896C9.447 14.9152 10.2797 15.4803 11.2523 15.4803C11.3161 15.4803 11.3806 15.4779 11.4455 15.4726C11.5129 15.4673 11.5634 15.4082 11.558 15.3407C11.5526 15.2731 11.494 15.2221 11.4259 15.2284C10.815 15.2782 10.2263 15.0488 9.87628 14.8735C9.9225 14.8622 9.94908 14.8519 9.95569 14.8493C10.0097 14.8273 10.0408 14.7705 10.0303 14.7133C10.0197 14.6561 9.97041 14.6141 9.9121 14.6129C9.76997 14.61 9.57314 14.5408 9.4036 14.4666C9.46763 14.4345 9.50504 14.4038 9.50832 14.4012C9.54521 14.3703 9.56077 14.321 9.54821 14.2745C9.53555 14.2283 9.49693 14.1936 9.44958 14.1859C9.3975 14.1773 9.33258 14.1605 9.26461 14.1399C9.33071 14.1019 9.35883 14.06 9.36961 14.0386C9.38663 14.0047 9.387 13.9649 9.37069 13.9306C9.35429 13.8964 9.32307 13.8717 9.2859 13.8638C9.25383 13.8569 9.21751 13.8451 9.17827 13.8298C9.18544 13.8226 9.19205 13.8145 9.1974 13.8052C9.22861 13.7522 9.21572 13.6842 9.16726 13.6462C9.16472 13.6442 9.06957 13.5696 8.92548 13.4453C8.94835 13.4369 8.96855 13.4213 8.98318 13.4003C9.01407 13.3557 9.01196 13.2961 8.97802 13.2539C8.9753 13.2505 8.88001 13.1307 8.74866 12.9488C8.79202 12.9824 8.83534 13.0168 8.87865 13.0447C8.89904 13.0576 8.9221 13.0641 8.94498 13.0641C8.97601 13.0641 9.00662 13.0523 9.03019 13.0296C9.0399 13.0202 9.04749 13.0094 9.05349 12.9979C9.12788 13.0774 9.20602 13.1495 9.2881 13.2111C9.29879 13.2191 9.31177 13.2189 9.32377 13.223C9.35855 13.2813 9.39474 13.3397 9.43271 13.3981C10.1772 14.5436 11.227 15.1572 12.486 15.1941C12.3701 15.2645 12.2443 15.3372 12.045 15.4148C12.0015 15.4318 11.9631 15.4488 11.9244 15.4658C11.9058 15.4695 11.8883 15.4762 11.8737 15.4878C11.5259 15.6488 11.3819 15.8079 11.3235 15.9192C11.2652 16.0298 11.3155 16.1433 11.3867 16.2022C11.4088 16.2204 11.437 16.2297 11.4652 16.2297C11.4846 16.2297 11.504 16.2254 11.5216 16.2165C11.5649 16.195 11.5939 16.1492 11.592 16.1011C11.597 16.0957 11.6183 16.0779 11.6851 16.0757C11.7338 16.0717 11.8364 16.0827 11.956 16.0922C12.0698 16.1016 12.2063 16.1122 12.3514 16.1197C12.2606 16.2255 12.1551 16.3482 12.1551 16.3482C12.1234 16.3851 12.1164 16.4373 12.1375 16.4811C12.1587 16.5252 12.2044 16.5525 12.2522 16.5508C12.3491 16.5474 12.4149 16.5455 12.4581 16.5446C12.4958 16.5939 12.5421 16.6135 12.5719 16.6212C12.6562 16.6427 12.7403 16.609 12.8036 16.569C12.8515 16.6035 12.8994 16.6181 12.9373 16.6236C13.0229 16.6353 13.1022 16.6104 13.1595 16.5822C13.2189 16.6205 13.2771 16.6303 13.3214 16.6303C13.3221 16.6303 13.3228 16.6303 13.3235 16.6303C13.4191 16.6298 13.5028 16.5836 13.562 16.5383C13.6144 16.5695 13.6644 16.5795 13.7031 16.5812C13.7909 16.5843 13.8636 16.5506 13.912 16.5189C14.0848 16.5536 14.2337 16.4722 14.3322 16.3824C14.3771 16.4085 14.4198 16.415 14.4538 16.4133C14.5413 16.4102 14.608 16.357 14.6508 16.3094C14.8467 16.3331 14.9872 16.2969 15.0685 16.2005C15.1128 16.148 15.1308 16.0889 15.1356 16.035C15.6791 16.0319 15.7283 15.7352 15.7323 15.6985C15.7358 15.6652 15.7257 15.632 15.704 15.6064C15.6825 15.5808 15.6512 15.5649 15.6178 15.563L14.193 15.4773C14.1334 15.473 14.0802 15.513 14.0664 15.5712C14.0661 15.5722 14.0418 15.6627 13.9658 15.735C13.8635 15.8327 13.6989 15.8842 13.5198 15.9116C13.5204 15.8952 13.5181 15.8785 13.5118 15.8622C13.4874 15.799 13.4163 15.7683 13.3533 15.792C13.0592 15.9062 12.5829 15.8918 12.2104 15.8659C12.2675 15.8192 12.3363 15.773 12.3913 15.7428C12.4378 15.7172 12.4627 15.6647 12.4529 15.6126C12.4457 15.5746 12.4183 15.5482 12.3852 15.5313C12.4888 15.479 12.5737 15.4284 12.6543 15.3793C12.7942 15.2936 12.9263 15.2129 13.167 15.1293C13.6315 14.9679 14.1691 14.9189 14.1745 14.9183C14.1867 14.9174 14.1987 14.9143 14.21 14.9097C14.2292 14.9018 15.7456 14.2665 16.46 12.8008C16.4506 12.8451 16.4406 12.8856 16.4297 12.921C16.411 12.9813 16.4411 13.0457 16.4993 13.0701C16.5443 13.089 16.5955 13.0792 16.6301 13.0471C16.585 13.1662 16.5441 13.2598 16.5108 13.3151C16.4768 13.3714 16.4932 13.4444 16.5479 13.4808C16.5608 13.4892 16.5745 13.4949 16.5886 13.4983C16.5333 13.5792 16.4772 13.6558 16.4213 13.726C16.3841 13.7727 16.3863 13.8393 16.4252 13.8833C16.3292 13.9839 16.244 14.0668 16.1794 14.1195C16.1371 14.1537 16.1233 14.2109 16.1427 14.2598C16.0804 14.2955 16.0291 14.3206 15.9936 14.3314C15.934 14.3493 15.8974 14.4094 15.9086 14.4707C15.9145 14.5031 15.9327 14.5304 15.9578 14.5483C15.8828 14.5684 15.8008 14.5878 15.7117 14.6055C15.6616 14.6155 15.6229 14.6556 15.6147 14.706C15.6065 14.7566 15.6305 14.8069 15.6748 14.8322C15.6787 14.8344 15.7205 14.8581 15.7847 14.8854C15.5475 14.9809 15.124 15.1057 14.4291 15.1742C14.3618 15.1809 14.3125 15.241 14.3192 15.3083C14.3257 15.3756 14.384 15.4223 14.4533 15.4184C15.7724 15.288 16.1798 14.9578 16.1964 14.9436C16.2345 14.9117 16.2496 14.8598 16.2345 14.8124C16.2244 14.781 16.2024 14.7557 16.1741 14.741C16.5956 14.6084 16.7765 14.4615 16.786 14.4537C16.8322 14.4153 16.8438 14.349 16.8134 14.2971C16.7827 14.2451 16.7189 14.2226 16.6632 14.2451C16.6476 14.2511 16.6226 14.2573 16.5909 14.2635C16.8738 14.0698 17.174 13.8391 17.306 13.7362C17.3292 13.719 17.3503 13.7024 17.3689 13.6868C17.4202 13.6438 17.4273 13.5675 17.385 13.5157C17.343 13.464 17.2665 13.4553 17.214 13.4967C17.1949 13.5118 17.175 13.5274 17.1544 13.5434C17.0935 13.5887 17.0155 13.6399 16.9305 13.6926C17.2515 13.3281 17.5746 12.933 17.6669 12.8195C17.6753 12.8092 17.6836 12.7989 17.692 12.7886C17.7343 12.7359 17.7261 12.6588 17.6734 12.6165C17.6206 12.5734 17.5434 12.5822 17.5011 12.6346L17.5008 12.6349L17.5007 12.6352C17.4984 12.6378 17.488 12.6508 17.4706 12.6723C17.3739 12.7904 17.272 12.9046 17.1716 13.0114C17.4986 12.4187 17.7462 11.8354 17.7825 11.7489C17.7838 11.7458 17.785 11.7428 17.7863 11.7396C17.8123 11.6776 17.7828 11.6057 17.7202 11.5798ZM11.9738 15.7126L12.0073 15.717C11.9662 15.7554 11.9328 15.7984 11.9063 15.8429C11.8481 15.8382 11.7952 15.834 11.7539 15.8322C11.8109 15.795 11.8843 15.7545 11.9738 15.7126Z" fill="#FFE15A"/>
</svg>
