<svg width="24" height="24" viewBox="0 0 24 24" fill="none" xmlns="http://www.w3.org/2000/svg">
<path d="M5 21C3.89543 21 3 20.1046 3 19L3 15C3 13.8954 3.89543 13 5 13L9 13C10.1046 13 11 13.8954 11 15L11 19C11 20.1046 10.1046 21 9 21L5 21ZM5 15L5 19L9 19L9 15L5 15ZM5 11C3.89543 11 3 10.1046 3 9L3 5C3 3.8954 3.89543 3 5 3L9 3C10.1046 3 11 3.8954 11 5L11 9C11 10.1046 10.1046 11 9 11L5 11ZM5 5L5 9L9 9L9 5L5 5ZM15 21C13.8954 21 13 20.1046 13 19L13 15C13 13.8954 13.8954 13 15 13L19 13C20.1046 13 21 13.8954 21 15L21 19C21 20.1046 20.1046 21 19 21L15 21ZM15 15L15 19L19 19L19 15L15 15ZM15 11C13.8954 11 13 10.1046 13 9L13 5C13 3.8954 13.8954 3 15 3L19 3C20.1046 3 21 3.8954 21 5L21 9C21 10.1046 20.1046 11 19 11L15 11ZM15 5L15 9L19 9L19 5L15 5Z" fill="#D6FFFE"/>
</svg>
