<svg width="154" height="20" viewBox="0 0 154 20" fill="none" xmlns="http://www.w3.org/2000/svg">
<path d="M0 2.91785L0.116467 2.60623L0.494985 2.3796C0.650274 2.28517 0.776446 2.20963 0.873502 2.15297C0.970558 2.09632 1.02879 2.05855 1.0482 2.03966C1.06761 2.02077 1.07732 2.00189 1.07732 1.983C1.09673 1.96412 1.11614 1.93579 1.13555 1.89802C1.13555 1.87913 1.13555 1.8508 1.13555 1.81303C1.15496 1.77526 1.17438 1.73749 1.19379 1.69972L1.45584 1.55807L2.12552 0.821529C2.14493 0.802644 2.16434 0.793201 2.18375 0.793201C2.22258 0.774316 2.2614 0.764873 2.30022 0.764873H3.46489C3.50371 0.764873 3.54254 0.774316 3.58136 0.793201C3.62018 0.812087 3.66871 0.840415 3.72694 0.878187C3.76576 0.897073 3.80459 0.934844 3.84341 0.9915C3.88223 1.04816 3.92105 1.10482 3.95988 1.16147L4.57133 2.35127L4.83338 2.69122L5.09543 3.11615L4.97896 3.20113C5.11484 3.33333 5.2216 3.44665 5.29925 3.54108C5.3963 3.61662 5.45454 3.67328 5.47395 3.71105C5.53218 3.78659 5.59041 3.89046 5.64865 4.02266C5.72629 4.13598 5.80394 4.27762 5.88158 4.44759L6.63862 5.63739C6.69685 5.75071 6.74538 5.84514 6.7842 5.92068C6.82302 5.99622 6.84243 6.05288 6.84243 6.09065C6.84243 6.14731 6.83273 6.20397 6.81332 6.26062C6.81332 6.31728 6.7939 6.37394 6.75508 6.43059L7.3083 6.74221L7.25007 6.96884L7.483 7.28045L8.06534 8.07365L8.50209 8.49858L8.61855 8.92351L9.92881 10.2833L9.66676 10.4249C9.68617 10.5005 9.70558 10.5666 9.72499 10.6232C9.76381 10.6799 9.80263 10.7271 9.84146 10.7649C9.88028 10.7838 9.93851 10.8121 10.0162 10.8499C10.0938 10.8687 10.1909 10.8876 10.3073 10.9065L10.9479 11.813L10.7441 11.8414L11.1226 12.1246C11.2585 12.2002 11.3652 12.2757 11.4429 12.3513C11.5399 12.4268 11.6079 12.4929 11.6467 12.5496C11.6855 12.6062 11.7146 12.6818 11.734 12.7762C11.7535 12.8517 11.7729 12.9556 11.7923 13.0878L11.9961 13.2861L11.967 13.4844C11.967 13.56 11.9767 13.6544 11.9961 13.7677C12.0349 13.8621 12.0932 13.9754 12.1708 14.1076L12.4911 14.3343C12.7046 14.4098 12.8599 14.4759 12.9569 14.5326C13.0734 14.5703 13.1316 14.5987 13.1316 14.6176L13.4519 15.0708V14.0793L13.714 13.4278C13.6169 13.2956 13.5393 13.1917 13.481 13.1161C13.4422 13.0217 13.4228 12.9462 13.4228 12.8895L13.4519 12.6912L13.6266 12.0963L13.7431 10.1416L13.9469 9.68839L13.8013 9.26346L13.8887 8.6119C13.8887 8.55524 13.8596 8.49858 13.8013 8.44193C13.7431 8.38527 13.6655 8.32861 13.5684 8.27195L13.481 4.67422C13.5393 4.67422 13.5878 4.66478 13.6266 4.64589C13.6849 4.62701 13.7237 4.60812 13.7431 4.58923C13.7819 4.55146 13.8013 4.50425 13.8013 4.44759C13.8207 4.39093 13.8304 4.30595 13.8304 4.19263L13.3937 3.90935L13.3355 3.39943C13.3355 3.22946 13.3258 3.07838 13.3063 2.94617C13.2869 2.81398 13.2578 2.7101 13.219 2.63456C13.1608 2.5779 13.0928 2.53069 13.0152 2.49292C12.9375 2.45515 12.8405 2.43626 12.724 2.43626C12.7046 2.34183 12.6852 2.26629 12.6658 2.20963C12.6658 2.15297 12.6658 2.1152 12.6658 2.09632C12.6658 1.92635 12.7628 1.77526 12.9569 1.64306C13.1705 1.51086 13.481 1.3881 13.8887 1.27479C13.9275 1.21813 13.9566 1.17092 13.976 1.13314C14.0149 1.09537 14.0537 1.0576 14.0925 1.01983C14.1119 0.982058 14.141 0.953729 14.1798 0.934844C14.2187 0.897073 14.2478 0.868744 14.2672 0.849858C14.306 0.812087 14.374 0.774315 14.471 0.736543C14.5875 0.679886 14.7331 0.613787 14.9078 0.538243H16.0724C16.1113 0.632672 16.1404 0.727101 16.1598 0.821529C16.1986 0.897072 16.218 0.982058 16.218 1.07649L16.1889 1.47309L16.2471 1.7847L16.218 2.29462L16.2471 3.45609C16.2471 3.56941 16.2374 3.67328 16.218 3.76771C16.218 3.86213 16.2083 3.95656 16.1889 4.05099L16.0433 4.61756V4.64589L16.2763 5.58074L16.218 6.26062L16.3054 6.54391C16.286 6.60057 16.2471 6.65722 16.1889 6.71388C16.1501 6.75165 16.0821 6.78942 15.9851 6.8272C16.0627 6.9594 16.121 7.06327 16.1598 7.13881C16.1986 7.21435 16.218 7.27101 16.218 7.30878L16.1598 8.44193L16.1889 9.34844L16.0142 10L16.1016 10.9348L16.0142 12.1813L16.1016 12.9178L15.9851 13.4278L16.0724 14.7025L16.0433 15.0991H14.8787L14.7622 14.9575H15.9269C15.8492 15.0331 15.791 15.0992 15.7522 15.1558C15.7133 15.2125 15.6939 15.2597 15.6939 15.2975C15.6939 15.3919 15.7327 15.4863 15.8104 15.5807C15.888 15.6563 15.9948 15.7318 16.1307 15.8074C16.1695 15.9585 16.1889 16.1001 16.1889 16.2323C16.2083 16.3645 16.218 16.4873 16.218 16.6006C16.218 16.7705 16.1986 16.9405 16.1598 17.1105C16.121 17.2805 16.0724 17.4504 16.0142 17.6204C15.9366 17.7904 15.8298 17.9981 15.6939 18.2436C15.5775 18.4703 15.4222 18.7252 15.2281 19.0085L14.9951 19.2635L14.4419 19.5751H13.2772L13.1608 19.2635L12.4911 18.3286L11.6467 17.2805L11.0061 16.204L10.8023 15.8924L10.8314 15.5807C10.8314 15.4863 10.7829 15.3824 10.6858 15.2691C10.6082 15.1558 10.4917 15.0331 10.3364 14.9009C10.1423 14.7498 9.97733 14.6176 9.84146 14.5043C9.70558 14.3909 9.61823 14.2965 9.57941 14.221L8.79325 12.8329L8.38562 12.3796L8.12357 11.6431C8.04592 11.4731 7.91975 11.3409 7.74505 11.2465C7.58976 11.152 7.40536 11.0954 7.19183 11.0765L7.04625 10.7649L6.23098 9.46176L5.99805 8.72521L5.53218 8.18697H6.69685L6.58038 8.30028H5.41571L5.18278 8.18697C5.0469 7.92257 4.89161 7.67705 4.71691 7.45043C4.56162 7.2238 4.39663 7.01605 4.22193 6.8272C4.08605 6.65722 3.94046 6.51558 3.78518 6.40227C3.6493 6.27007 3.50371 6.16619 3.34842 6.09065C3.38725 5.93957 3.41636 5.82625 3.43578 5.75071C3.45519 5.67517 3.46489 5.62795 3.46489 5.60906C3.46489 5.57129 3.45519 5.54296 3.43578 5.52408C3.43578 5.48631 3.42607 5.44854 3.40666 5.41076L3.66871 5.92068L3.31931 6.06232L3.40666 6.26062L3.29019 6.85552L3.37754 8.07365L3.29019 8.44193L3.02814 8.58357L3.08637 8.92351L3.31931 9.71671V9.77337C3.31931 9.84891 3.29019 9.94334 3.23196 10.0567C3.17372 10.1511 3.08637 10.2738 2.96991 10.4249L3.08637 10.9915L3.20284 11.3031L3.23196 15.3824L3.37754 16.5722V16.6572L3.17372 17.4788L3.23196 17.6204C3.32901 17.6771 3.39695 17.7337 3.43578 17.7904C3.4746 17.847 3.49401 17.9037 3.49401 17.9603C3.49401 18.0359 3.43577 18.1681 3.31931 18.3569C3.20284 18.5458 3.02814 18.8008 2.79521 19.1218L2.62051 19.3201H1.45584L1.10644 19.2918H2.27111C2.15464 19.3862 2.05758 19.4618 1.97994 19.5184C1.9217 19.5751 1.87318 19.6034 1.83435 19.6034L0.669685 19.6317L0.640568 19.6034L0.349401 19.5751H1.51407L1.28114 19.6601H0.116467L0.145584 19.2918C0.145584 19.1974 0.155289 19.1124 0.174701 19.0368C0.194112 18.9613 0.223228 18.8952 0.262051 18.8385L0.582335 18.4419L0.815269 18.102L0.494985 17.8187L0.553218 17.4788L0.757035 17.0822C0.698802 16.9877 0.659979 16.9027 0.640568 16.8272C0.621157 16.7517 0.611452 16.6856 0.611452 16.6289V16.5156L0.844385 15.779L0.757035 14.1926C0.795858 14.1171 0.854091 14.0604 0.931736 14.0227C1.00938 13.966 1.10644 13.9282 1.2229 13.9093V13.7677L0.902619 13.4278L0.931736 13.1161L0.873502 12.8045L0.960852 12.0397V11.983L0.757035 11.3598L0.873502 10.5949L0.815269 10.0283C0.815269 9.9339 0.844385 9.83947 0.902619 9.74504C0.960852 9.65061 1.05791 9.56563 1.19379 9.49009L1.16467 9.12181L0.960852 8.69688C0.960852 8.65911 0.970558 8.6119 0.989969 8.55524C1.00938 8.4797 1.0385 8.38527 1.07732 8.27195C0.999675 8.2153 0.931736 8.1492 0.873502 8.07365C0.83468 7.99811 0.815269 7.92257 0.815269 7.84703C0.815269 7.7526 0.824974 7.62984 0.844385 7.47875C0.883208 7.32767 0.931736 7.1577 0.989969 6.96884L0.844385 6.77054L0.815269 6.37394L0.669685 5.43909C0.669685 5.40132 0.67939 5.35411 0.698802 5.29745C0.718213 5.22191 0.757035 5.13692 0.815269 5.04249V4.73088C0.815269 4.44759 0.795858 4.22096 0.757035 4.05099C0.737624 3.86213 0.698802 3.73938 0.640568 3.68272L0 2.91785Z" fill="#05BCB9"/>
<path d="M18.0926 19.5467L18.6167 18.6402L19.0244 18.1586L19.3155 17.6204L19.5485 17.3371L19.7232 17.0822V16.9688C19.9367 16.9311 20.092 16.8744 20.189 16.7989C20.2861 16.7044 20.3346 16.5911 20.3346 16.4589V16.0907L20.7714 15.5807L21.3828 14.2776L21.7322 13.8244L22.1399 12.9462L22.5766 12.0963L23.1298 11.1898L23.7122 10.6516L23.7704 10.5099C23.7704 10.4721 23.7607 10.4344 23.7413 10.3966C23.7219 10.3588 23.6928 10.3116 23.6539 10.255C23.751 10.1794 23.8286 10.1228 23.8869 10.085C23.9451 10.0283 23.9839 9.99056 24.0033 9.97167C24.0422 9.9339 24.0713 9.88669 24.0907 9.83003C24.1295 9.77337 24.1683 9.70727 24.2072 9.63173L24.0325 9.34844L24.2363 9.09348L24.4692 8.44193C24.4692 8.40416 24.4983 8.35694 24.5566 8.30028C24.6148 8.22474 24.6924 8.1492 24.7895 8.07365L24.7604 7.96034L25.4301 6.34561L25.925 5.07082C25.9639 4.95751 26.0318 4.82531 26.1289 4.67422C26.2259 4.52314 26.3618 4.35316 26.5365 4.16431L26.42 3.88102L26.5074 3.48442C26.5656 3.29556 26.6238 3.14448 26.6821 3.03116C26.7403 2.91785 26.7888 2.83286 26.8277 2.7762C26.8665 2.75732 26.9344 2.73843 27.0315 2.71955C27.1285 2.68178 27.2741 2.644 27.4682 2.60623L27.5265 2.40793L27.3809 1.983L27.3518 1.75637C27.3518 1.69972 27.3615 1.64306 27.3809 1.5864C27.4003 1.52974 27.4391 1.49197 27.4973 1.47309L28.4873 0.849858L28.662 0.424929C28.7591 0.311615 28.8658 0.217186 28.9823 0.141643C29.1182 0.0660998 29.2735 0.0188855 29.4482 0H30.6128L30.7875 0.5949H29.6229L29.8267 0.566572H30.9914L30.9331 0.708215L31.1369 1.13314L31.5155 1.67139L32.0396 2.60623L32.3307 3.34278L32.7092 3.96601L32.3307 4.10765C32.3307 4.14542 32.3404 4.19263 32.3598 4.24929C32.3792 4.28706 32.4181 4.32483 32.4763 4.36261C32.651 4.45703 32.7772 4.55146 32.8548 4.64589C32.9519 4.72144 33.0004 4.80642 33.0004 4.90085L32.9713 5.12748L33.2916 5.49575L33.641 6.11898L33.8739 6.43059V6.57224L33.7866 6.8272L33.8448 7.11048L34.0486 7.36544L34.4271 7.67705L34.9221 8.64023L35.1842 9.09348L35.2133 9.4051C35.388 9.57507 35.5141 9.71671 35.5918 9.83003C35.6889 9.94334 35.7374 10.0472 35.7374 10.1416C35.7374 10.1605 35.7374 10.1794 35.7374 10.1983C35.7374 10.1983 35.7374 10.2077 35.7374 10.2266C35.718 10.2455 35.7083 10.2644 35.7083 10.2833C35.7083 10.3022 35.7083 10.3211 35.7083 10.3399L35.9703 10.6232L36.6109 11.6714L36.6982 11.7847L36.7856 11.9263C36.805 11.9452 36.8244 11.983 36.8438 12.0397C36.8826 12.0774 36.9215 12.1246 36.9603 12.1813L37.0185 12.3229L37.0767 12.4363C37.1738 12.5685 37.2417 12.6818 37.2806 12.7762C37.3194 12.8517 37.3485 12.899 37.3679 12.9178C37.3679 12.9745 37.3679 13.0406 37.3679 13.1161C37.3873 13.1728 37.4067 13.2389 37.4261 13.3144C37.5814 13.39 37.6979 13.475 37.7755 13.5694C37.8532 13.6638 37.892 13.7583 37.892 13.8527V13.9093L37.8047 14.5043L37.8629 14.6742L38.4452 14.9575L38.6491 15.2125L38.7364 15.4958C38.7364 15.5524 38.7752 15.6185 38.8529 15.6941C38.9499 15.7507 39.0664 15.8263 39.2023 15.9207V16.2323L39.6973 16.7139L40.134 17.4788L40.3961 17.762C40.5125 17.9131 40.5999 18.0548 40.6581 18.187C40.7358 18.3192 40.7746 18.4325 40.7746 18.5269L40.6872 18.6686L40.134 19.1501L39.5517 19.915H39.0858L38.7946 20H37.63V19.7167L37.4553 19.3768V19.1501L37.4261 18.8669C37.3679 18.7724 37.3194 18.678 37.2806 18.5836C37.2417 18.4703 37.2126 18.3475 37.1932 18.2153H36.9603L36.8438 17.9037L36.3779 16.9405L36.2615 16.4873L35.5627 15.2691C35.5239 15.1747 35.4947 15.0803 35.4753 14.9858C35.4559 14.8914 35.4462 14.7875 35.4462 14.6742V14.4476C35.388 14.4098 35.3395 14.3815 35.3006 14.3626C35.2618 14.3248 35.223 14.2965 35.1842 14.2776L35.0386 14.1076C34.8639 13.8244 34.728 13.5694 34.6309 13.3428C34.5533 13.1161 34.4951 12.9178 34.4562 12.7479L33.9613 12.5496H35.1259C35.0677 12.7573 34.99 12.9178 34.893 13.0312C34.8153 13.1256 34.7183 13.1728 34.6018 13.1728H33.3789L31.9231 12.8895L30.1178 13.1445H28.9532L28.7202 13.1161L28.2835 13.2578H27.1188C27.0606 13.2767 27.0024 13.2956 26.9441 13.3144C26.8859 13.3333 26.8277 13.3428 26.7694 13.3428H25.5174L25.1971 13.3144L24.9642 13.3711L24.3819 13.3994C24.246 13.4372 24.1198 13.5411 24.0033 13.711C23.8869 13.8621 23.7704 14.0793 23.6539 14.3626L23.3919 14.9009L23.2463 14.9292C23.1687 15.1747 23.091 15.3919 23.0134 15.5807C22.9357 15.7507 22.8678 15.8829 22.8095 15.9773C22.7319 16.1095 22.6446 16.2512 22.5475 16.4023C22.4504 16.5534 22.3243 16.7328 22.169 16.9405V17.2238L21.9652 17.5354L21.179 19.2351C21.1402 19.2918 21.0625 19.3484 20.9461 19.4051C20.849 19.4618 20.7131 19.5184 20.5384 19.5751L20.5676 19.8017C20.4899 19.8017 20.4026 19.8017 20.3055 19.8017C20.2279 19.8206 20.1502 19.83 20.0726 19.83L18.9079 19.8584C18.7914 19.8395 18.6653 19.8017 18.5294 19.745C18.3935 19.6884 18.2576 19.6128 18.1218 19.5184L18.0926 19.5467ZM25.2262 11.6147L25.1098 11.9547L25.3427 11.983L25.5756 12.0397H26.8277L28.0797 12.0963L28.662 12.068H29.8267L30.3217 12.238H29.157C29.2152 12.1813 29.2638 12.1435 29.3026 12.1246C29.3608 12.0869 29.3996 12.068 29.419 12.068C29.419 12.068 29.4967 12.0585 29.652 12.0397C29.8267 12.0208 30.0693 12.0019 30.3799 11.983L30.7875 11.9263H31.9522L31.8649 12.0963L32.0104 12.153H30.8458C30.8846 12.153 30.9234 12.1341 30.9622 12.0963C31.0205 12.0585 31.0787 12.0019 31.1369 11.9263L31.5155 11.898C31.8066 11.8791 32.059 11.8602 32.2725 11.8414C32.5054 11.8225 32.6898 11.8036 32.8257 11.7847C32.9422 11.7847 33.0392 11.7753 33.1169 11.7564C33.1945 11.7375 33.2528 11.7186 33.2916 11.6997C33.3498 11.6619 33.4177 11.6242 33.4954 11.5864C33.573 11.5297 33.6507 11.4636 33.7283 11.3881L33.6119 11.2748L33.6992 11.1898L33.641 11.0765H33.3207C33.243 10.9821 33.1848 10.8499 33.146 10.6799C33.1072 10.491 33.0781 10.2738 33.0586 10.0283L33.0295 9.74504L32.4763 9.6034L31.8066 8.30028H31.6028L30.7293 6.62889L30.8749 6.31728L30.7875 5.94901L30.1178 5.63739L29.1279 3.71105H29.0988C29.0405 3.88102 28.992 4.03211 28.9532 4.16431C28.9338 4.27762 28.9047 4.37205 28.8658 4.44759C28.8464 4.50425 28.7979 4.56091 28.7202 4.61756C28.662 4.67422 28.5844 4.74976 28.4873 4.84419C28.3708 4.93862 28.2738 5.04249 28.1961 5.15581C28.1379 5.26912 28.0991 5.38244 28.0797 5.49575L28.0214 5.80736L27.41 7.19547C27.3323 7.34655 27.2741 7.47875 27.2353 7.59207C27.1965 7.6865 27.1576 7.76204 27.1188 7.8187C27.0994 7.87535 27.0606 7.93201 27.0024 7.98867C26.9441 8.04533 26.8859 8.10198 26.8277 8.15864L26.7112 8.47025C26.6918 8.5458 26.6627 8.6119 26.6238 8.66856C26.6044 8.72521 26.585 8.77243 26.5656 8.8102C26.5268 8.82908 26.4783 8.84797 26.42 8.86686C26.3618 8.86686 26.2938 8.86686 26.2162 8.86686L26.1871 9.2068C26.1677 9.45231 26.1289 9.66006 26.0706 9.83003C26.0318 10 25.993 10.1322 25.9542 10.2266C25.8959 10.3399 25.8183 10.4438 25.7212 10.5382C25.6242 10.6327 25.498 10.7271 25.3427 10.8215L25.6048 11.2181L25.3718 11.3031C25.3524 11.322 25.3233 11.3598 25.2845 11.4164C25.2651 11.4731 25.2456 11.5392 25.2262 11.6147Z" fill="#05BCB9"/>
<path d="M46.872 5.43909L46.61 5.83569L46.7847 6.00567L46.5809 6.28895C46.3867 6.59112 46.2023 6.84608 46.0276 7.05382C45.8529 7.26157 45.6977 7.41265 45.5618 7.50708C45.4259 7.6204 45.2706 7.70538 45.0959 7.76204C44.9406 7.79981 44.7756 7.8187 44.6009 7.8187H43.4363C43.3198 7.8187 43.1742 7.80925 42.9995 7.79037C42.8248 7.77148 42.6307 7.74315 42.4172 7.70538C42.456 7.59207 42.4851 7.49764 42.5045 7.4221C42.5433 7.34655 42.5919 7.2899 42.6501 7.25213C42.7083 7.21435 42.786 7.18602 42.883 7.16714C42.9995 7.14825 43.1257 7.13881 43.2616 7.13881H43.4945L43.6983 6.85552L44.4553 6.43059L44.6009 6.11898L45.0086 5.72238L45.1541 4.92918L45.358 4.53258L45.2706 4.50425L45.3288 4.13598L45.1541 3.54108L44.8921 2.63456C44.8727 2.5779 44.8144 2.52125 44.7174 2.46459C44.6397 2.40793 44.533 2.36072 44.3971 2.32295C44.3583 2.2474 44.3098 2.19075 44.2515 2.15297C44.2127 2.1152 44.1642 2.09632 44.1059 2.09632C44.0865 2.03966 44.0574 1.983 44.0186 1.92635C43.9992 1.86969 43.9604 1.81303 43.9021 1.75637H45.0668L44.8339 1.81303H43.6692C43.611 1.81303 43.5333 1.80359 43.4363 1.7847C43.3586 1.74693 43.2713 1.69027 43.1742 1.61473L43.4071 1.35977L43.5527 1.16147L44.2806 0.509915L44.7465 0H45.9112C46.0665 0.037771 46.212 0.0849853 46.3479 0.141643C46.4838 0.179414 46.61 0.226628 46.7264 0.283286C46.8235 0.339943 46.9011 0.406043 46.9594 0.481585C47.0176 0.557128 47.0758 0.642114 47.1341 0.736543C47.1535 0.7932 47.1729 0.859301 47.1923 0.934844C47.2117 0.991502 47.2311 1.04816 47.2505 1.10482C47.2505 1.18036 47.2603 1.2559 47.2797 1.33144C47.2991 1.40699 47.3185 1.49197 47.3379 1.5864L47.5417 2.5779L47.5999 2.83286L47.5708 2.9745L47.3379 3.73938L47.3961 4.44759C47.3767 4.56091 47.3185 4.70255 47.2214 4.87252C47.1438 5.04249 47.0273 5.23135 46.872 5.43909Z" fill="#05BCB9"/>
<path d="M50.3765 2.94617L50.0562 2.46459L50.1436 2.20963L50.1727 1.983C50.1727 1.94523 50.1921 1.90746 50.2309 1.86969C50.2891 1.81303 50.3571 1.74693 50.4347 1.67139C50.59 1.67139 50.7356 1.6525 50.8715 1.61473C51.0268 1.57696 51.1724 1.5203 51.3082 1.44476C51.4053 1.36922 51.5023 1.26534 51.5994 1.13314C51.7159 1.00094 51.8323 0.840415 51.9488 0.651558C52.0264 0.613786 52.0944 0.5949 52.1526 0.5949C52.2109 0.576014 52.2497 0.566572 52.2691 0.566572H53.4338C53.4338 0.566572 53.4435 0.566572 53.4629 0.566572C53.4823 0.566572 53.492 0.566572 53.492 0.566572C53.5114 0.585457 53.5308 0.5949 53.5502 0.5949C53.589 0.5949 53.6182 0.5949 53.6376 0.5949L53.7832 1.13314L53.9287 1.52975C53.9287 1.5864 53.9093 1.64306 53.8705 1.69972C53.8317 1.75637 53.7734 1.81303 53.6958 1.86969L54.0161 1.89802L54.0743 2.20963L54.2781 3.05949L54.3073 3.28612C54.3073 3.38055 54.2878 3.47498 54.249 3.5694C54.2102 3.64495 54.1423 3.72993 54.0452 3.82436L54.3655 3.88102L54.4237 4.22096C54.4237 4.31539 54.4334 4.39093 54.4528 4.44759C54.4917 4.50425 54.5208 4.54202 54.5402 4.56091L54.8605 4.84419L55.1516 5.86402L55.7049 6.68555L55.7922 7.47875L56.1707 8.07365L56.0251 8.55524V8.89518C56.0251 8.97073 56.0251 9.04627 56.0251 9.12181C56.0251 9.17847 56.0349 9.22568 56.0543 9.26346L56.1125 9.37677C56.1125 9.37677 56.1319 9.38621 56.1707 9.4051C56.2095 9.4051 56.2581 9.42399 56.3163 9.46176H55.1516C55.1905 9.42399 55.2196 9.39566 55.239 9.37677C55.2584 9.339 55.2875 9.31067 55.3263 9.29179C55.3458 9.2729 55.3652 9.26346 55.3846 9.26346C55.4234 9.24457 55.4525 9.23513 55.4719 9.23513H56.6366L56.7531 9.34844L57.2189 10.7365L57.8886 12.2096C57.8886 12.2285 57.8886 12.2568 57.8886 12.2946C57.8886 12.3135 57.8983 12.3418 57.9177 12.3796C57.9177 12.3985 57.9177 12.4268 57.9177 12.4646C57.9177 12.4835 57.9177 12.5118 57.9177 12.5496L57.8886 13.0878C57.9274 13.1256 57.9566 13.1634 57.976 13.2011C58.0148 13.2389 58.0439 13.2767 58.0633 13.3144C58.0827 13.3711 58.1021 13.4183 58.1215 13.4561C58.141 13.4939 58.1507 13.5316 58.1507 13.5694H56.986C57.0442 13.5316 57.0928 13.5033 57.1316 13.4844C57.1898 13.4655 57.2286 13.4561 57.248 13.4561H58.4127C58.4515 13.4561 58.4904 13.475 58.5292 13.5127C58.568 13.5316 58.5971 13.56 58.6165 13.5977L58.8495 14.3626L59.5774 15.6657L59.5191 16.1473V16.1756C59.5191 16.1945 59.5191 16.204 59.5191 16.204L60.4218 13.966L60.8294 13.3428C60.8294 13.2483 60.8391 13.1634 60.8585 13.0878C60.8973 13.0123 60.9362 12.9651 60.975 12.9462C61.0138 12.9084 61.0623 12.8895 61.1206 12.8895C61.1788 12.8706 61.2662 12.8612 61.3826 12.8612V12.4929C61.3826 12.3418 61.3923 12.2002 61.4117 12.068C61.4312 11.9169 61.47 11.7753 61.5282 11.6431L61.3826 11.4448L61.732 10.6799L62.0523 9.71671L62.4891 9.43343C62.5473 9.39566 62.5861 9.35788 62.6055 9.32011C62.6443 9.28234 62.6638 9.24457 62.6638 9.2068L62.5182 8.55524L63.217 6.65722L63.2461 6.45892L63.217 6.14731L63.4499 5.94901L63.2461 5.07082L63.3626 4.92918L63.217 4.70255L63.479 4.27762L63.4208 4.13598L63.5664 3.96601C63.5664 3.87158 63.5664 3.78659 63.5664 3.71105C63.5858 3.6355 63.6052 3.57885 63.6246 3.54108C63.6246 3.54108 63.6634 3.47498 63.7411 3.34278C63.8187 3.21058 63.9255 3.00283 64.0614 2.71955L64.2943 2.29462C64.2167 2.21907 64.1584 2.15297 64.1196 2.09632C64.0808 2.03966 64.0614 1.99245 64.0614 1.95467C64.0614 1.87913 64.0808 1.79415 64.1196 1.69972C64.1584 1.60529 64.2167 1.50142 64.2943 1.3881L64.4399 1.24646L65.4298 1.01983L66.3325 0.679886H67.4971C67.6524 0.717657 67.7592 0.7932 67.8174 0.906516C67.8951 1.00094 67.9339 1.1237 67.9339 1.27479C67.9339 1.3881 67.9145 1.50142 67.8756 1.61473C67.8368 1.72804 67.7883 1.83192 67.7301 1.92635L67.5263 2.29462L67.3516 3.03116L66.3907 5.04249L66.0413 6.45892L65.7501 6.77054C65.7501 6.90274 65.7404 7.0255 65.721 7.13881C65.721 7.25212 65.7016 7.33711 65.6628 7.39377C65.624 7.45042 65.5657 7.51653 65.4881 7.59207C65.4298 7.66761 65.3522 7.7526 65.2551 7.84703L64.7602 8.30028C64.7602 8.64023 64.7408 8.93295 64.7019 9.17847C64.6631 9.4051 64.5952 9.59396 64.4981 9.74504L63.9158 10.6799L63.4208 12.3513C63.2849 12.6534 63.1782 12.899 63.1005 13.0878C63.0229 13.2767 62.984 13.4183 62.984 13.5127C62.984 13.5316 62.984 13.56 62.984 13.5977C62.984 13.6355 62.9937 13.6827 63.0132 13.7394L62.8385 14.0227L62.5764 14.7875L62.3435 15.1841L62.1688 15.9773L61.8776 16.6572L61.9067 17.1671L61.3826 17.9037C61.3438 17.9603 61.3147 18.0359 61.2953 18.1303C61.2759 18.2059 61.2662 18.3003 61.2662 18.4136L60.7712 18.7252C60.4024 18.9707 60.0627 19.1596 59.7521 19.2918C59.4609 19.424 59.1989 19.509 58.9659 19.5467L57.8013 19.5751L57.481 19.0652L56.8404 17.3088L56.5201 16.204L56.5492 15.8074L56.4037 15.4958H57.5683L57.4519 15.5524H56.2872L55.8504 14.3626L56.0251 14.051C55.9863 14.0321 55.9475 14.0227 55.9087 14.0227C55.8699 14.0038 55.8407 13.9849 55.8213 13.966C55.7825 13.966 55.7534 13.966 55.734 13.966C55.7146 13.9471 55.6952 13.9282 55.6757 13.9093C55.6563 13.8905 55.6369 13.8716 55.6175 13.8527C55.5981 13.8338 55.5884 13.8149 55.5884 13.796C55.569 13.7771 55.5496 13.7488 55.5302 13.711C55.5107 13.6733 55.4913 13.6355 55.4719 13.5977C55.5107 13.5222 55.5399 13.4561 55.5593 13.3994C55.5787 13.3428 55.5884 13.2861 55.5884 13.2295V13.1445L55.5593 13.0028L55.3263 12.7479L54.8896 12.4929C54.8508 12.4551 54.8216 12.4079 54.8022 12.3513C54.7828 12.2757 54.7731 12.1813 54.7731 12.068L54.8022 11.6997L54.6858 11.4731L54.5693 11.0198L54.1326 10.6799L53.6376 9.4051L53.4046 9.03683V8.64023L53.0552 8.18697L53.5211 7.8187L53.2591 7.53541H54.4237L54.1326 7.56374H52.9679C52.9485 7.56374 52.9194 7.56374 52.8805 7.56374C52.8417 7.54485 52.7932 7.52597 52.735 7.50708L51.8615 5.86402C51.9197 5.78848 51.9585 5.72238 51.9779 5.66572C52.0167 5.60907 52.0361 5.55241 52.0361 5.49575L51.9488 5.18414L51.4829 5.01416L51.0753 4.22096L50.7841 3.85269L50.6968 3.25779L50.5512 2.94617H50.3765Z" fill="#05BCB9"/>
<path d="M70.3242 19.6601L70.0621 19.2918C70.1592 19.1407 70.2271 19.0085 70.266 18.8952C70.3242 18.763 70.3533 18.6591 70.3533 18.5836L70.3242 18.2436L70.7318 17.0255V16.1473L71.3724 16.034L71.4015 15.9207C71.4015 15.8829 71.3821 15.8357 71.3433 15.779C71.3239 15.7035 71.285 15.628 71.2268 15.5524H72.3915L72.0421 15.5807H70.8774L70.8192 15.5241H71.9838L71.9256 15.6091H70.7609L70.7901 15.1275L70.8192 14.5326L70.9356 13.5127L70.9065 12.9462L71.1686 12.5779C71.1298 12.5401 71.0909 12.5118 71.0521 12.4929C71.0133 12.4551 70.9842 12.4174 70.9648 12.3796C70.9453 12.3607 70.9259 12.3324 70.9065 12.2946C70.8871 12.2568 70.8774 12.2285 70.8774 12.2096C70.858 12.153 70.8386 12.0869 70.8192 12.0113C70.7998 11.9358 70.7901 11.8414 70.7901 11.728C70.7901 11.6336 70.7998 11.5203 70.8192 11.3881C70.858 11.2559 70.9162 11.1143 70.9939 10.9632L70.8192 10.7365V8.83853L70.7318 8.55524V8.24363C70.7706 8.20585 70.7998 8.15864 70.8192 8.10198C70.858 8.02644 70.8774 7.9509 70.8774 7.87535L70.6445 7.59207L70.7318 7.36544L70.6154 6.34561L70.7901 5.83569V5.77904C70.7901 5.70349 70.7609 5.62795 70.7027 5.55241C70.6639 5.45798 70.5959 5.36355 70.4989 5.26912V5.01416L70.3824 3.79603L70.4989 3.28612L70.2951 3.00283L70.3242 2.54957V1.75637C70.363 1.69972 70.4115 1.6525 70.4698 1.61473C70.5474 1.55807 70.6445 1.5203 70.7609 1.50142L71.4597 1.44476C71.518 1.44476 71.5859 1.39754 71.6636 1.30312C71.7412 1.20869 71.8286 1.07649 71.9256 0.906516L72.4497 0.764873L72.9156 0.5949H74.0802C74.0997 0.5949 74.1191 0.604343 74.1385 0.62323C74.1773 0.62323 74.2161 0.632673 74.2549 0.651558C74.2938 0.727101 74.3132 0.802644 74.3132 0.878187C74.3326 0.953729 74.3423 1.01983 74.3423 1.07649L74.2841 1.50142L74.2258 1.95467L73.9347 2.43626L74.1094 3.88102C74.1094 3.99433 74.0803 4.12653 74.022 4.27762C73.9638 4.40982 73.8861 4.57979 73.7891 4.78753V5.07082L73.9929 5.12748V5.58074L74.0511 6.71388C74.0511 6.86497 74.022 7.01605 73.9638 7.16714C73.9055 7.29934 73.8182 7.4221 73.7017 7.53541L73.9055 7.84703V8.6119L73.5853 9.12181L73.76 9.46176C73.7988 9.5373 73.8182 9.61284 73.8182 9.68839C73.8376 9.74504 73.8473 9.8017 73.8473 9.85836L73.7891 10.6232V11.4731L73.5853 12.1246V12.2096C73.5853 12.2852 73.6047 12.3513 73.6435 12.4079C73.7017 12.4646 73.7697 12.5118 73.8473 12.5496L73.8182 13.0878L73.8473 13.3711L73.8764 13.966V14.221L73.6144 14.9575L73.8764 15.0991L73.8182 15.3258L73.9055 16.119L73.8473 17.4221L73.9638 17.9603L73.9929 18.3003C73.5658 18.6591 73.197 18.933 72.8865 19.1218C72.5953 19.2918 72.3721 19.3768 72.2168 19.3768L71.0521 19.4051L70.8774 19.3768H72.0421L71.9838 19.5184L71.4889 19.6601H70.3242Z" fill="#05BCB9"/>
<path d="M82.9397 12.068C82.9397 12.068 82.9397 12.0774 82.9397 12.0963C82.9397 12.0963 82.9397 12.1058 82.9397 12.1246C82.9397 12.1435 82.9397 12.1624 82.9397 12.1813C82.9785 12.1624 83.0173 12.1435 83.0562 12.1246C83.095 12.1058 83.1241 12.0869 83.1435 12.068H84.3082L84.7449 12.238L86.3464 12.2946L86.8413 12.3796L87.5984 12.1813H88.763L89.1124 12.238H87.9478L88.4719 11.6147H89.6365L89.8695 11.898L89.6657 12.2096L89.5492 12.5212L89.0251 12.9745L88.7922 13.2578L88.3845 13.4561L87.4819 14.0793C87.4431 14.0982 87.4043 14.1265 87.3654 14.1643C87.3266 14.1832 87.2878 14.1926 87.249 14.1926C87.1907 14.2115 87.1422 14.2304 87.1034 14.2493C87.0646 14.2493 87.0257 14.2493 86.9869 14.2493H85.8223C85.7446 14.2493 85.667 14.2493 85.5893 14.2493C85.5311 14.2304 85.4826 14.2115 85.4437 14.1926L85.2108 14.1076L85.0943 14.136H83.9297L83.5511 14.051C83.4153 14.0132 83.2988 13.9849 83.2017 13.966C83.1047 13.9471 83.0076 13.9282 82.9106 13.9093L82.5321 13.9377H81.3383L80.523 13.7394H79.3292L79.1545 13.6827H80.3192L80.028 13.9377H78.8633C78.7469 13.8999 78.6498 13.8716 78.5722 13.8527C78.4945 13.8338 78.4363 13.8244 78.3975 13.8244H79.5622C79.4651 13.8244 79.3583 13.8621 79.2419 13.9377C79.1448 13.9943 79.0381 14.0982 78.9216 14.2493H77.7569C77.5822 14.2493 77.456 14.221 77.3784 14.1643C77.3008 14.1076 77.2619 14.0415 77.2619 13.966C77.2619 13.8527 77.3008 13.7394 77.3784 13.6261C77.4755 13.4939 77.621 13.3617 77.8152 13.2295L78.8342 12.4363L79.5622 12.0397L80.4357 11.983L80.9889 11.898H82.1535L82.5903 12.068H82.9397Z" fill="#05BCB9"/>
<path d="M90.6854 19.5467L91.2095 18.6402L91.6172 18.1586L91.9083 17.6204L92.1413 17.3371L92.316 17.0822V16.9688C92.5295 16.9311 92.6848 16.8744 92.7818 16.7989C92.8789 16.7044 92.9274 16.5911 92.9274 16.4589V16.0907L93.3642 15.5807L93.9756 14.2776L94.325 13.8244L94.7327 12.9462L95.1694 12.0963L95.7226 11.1898L96.305 10.6516L96.3632 10.5099C96.3632 10.4721 96.3535 10.4344 96.3341 10.3966C96.3147 10.3588 96.2855 10.3116 96.2467 10.255C96.3438 10.1794 96.4214 10.1228 96.4797 10.085C96.5379 10.0283 96.5767 9.99056 96.5961 9.97167C96.6349 9.9339 96.6641 9.88669 96.6835 9.83003C96.7223 9.77337 96.7611 9.70727 96.7999 9.63173L96.6252 9.34844L96.8291 9.09348L97.062 8.44193C97.062 8.40416 97.0911 8.35694 97.1493 8.30028C97.2076 8.22474 97.2852 8.1492 97.3823 8.07365L97.3532 7.96034L98.0228 6.34561L98.5178 5.07082C98.5566 4.95751 98.6246 4.82531 98.7216 4.67422C98.8187 4.52314 98.9546 4.35316 99.1293 4.16431L99.0128 3.88102L99.1002 3.48442C99.1584 3.29556 99.2166 3.14448 99.2749 3.03116C99.3331 2.91785 99.3816 2.83286 99.4204 2.7762C99.4593 2.75732 99.5272 2.73843 99.6243 2.71955C99.7213 2.68178 99.8669 2.644 100.061 2.60623L100.119 2.40793L99.9737 1.983L99.9445 1.75637C99.9445 1.69972 99.9543 1.64306 99.9737 1.5864C99.9931 1.52974 100.032 1.49197 100.09 1.47309L101.08 0.849858L101.255 0.424929C101.352 0.311615 101.459 0.217186 101.575 0.141643C101.711 0.0660998 101.866 0.0188855 102.041 0H103.206L103.38 0.5949H102.216L102.419 0.566572H103.584L103.526 0.708215L103.73 1.13314L104.108 1.67139L104.632 2.60623L104.924 3.34278L105.302 3.96601L104.924 4.10765C104.924 4.14542 104.933 4.19263 104.953 4.24929C104.972 4.28706 105.011 4.32483 105.069 4.36261C105.244 4.45703 105.37 4.55146 105.448 4.64589C105.545 4.72144 105.593 4.80642 105.593 4.90085L105.564 5.12748L105.884 5.49575L106.234 6.11898L106.467 6.43059V6.57224L106.379 6.8272L106.438 7.11048L106.641 7.36544L107.02 7.67705L107.515 8.64023L107.777 9.09348L107.806 9.4051C107.981 9.57507 108.107 9.71671 108.185 9.83003C108.282 9.94334 108.33 10.0472 108.33 10.1416C108.33 10.1605 108.33 10.1794 108.33 10.1983C108.33 10.1983 108.33 10.2077 108.33 10.2266C108.311 10.2455 108.301 10.2644 108.301 10.2833C108.301 10.3022 108.301 10.3211 108.301 10.3399L108.563 10.6232L109.204 11.6714L109.291 11.7847L109.378 11.9263C109.398 11.9452 109.417 11.983 109.437 12.0397C109.475 12.0774 109.514 12.1246 109.553 12.1813L109.611 12.3229L109.67 12.4363C109.767 12.5685 109.835 12.6818 109.873 12.7762C109.912 12.8517 109.941 12.899 109.961 12.9178C109.961 12.9745 109.961 13.0406 109.961 13.1161C109.98 13.1728 110 13.2389 110.019 13.3144C110.174 13.39 110.291 13.475 110.368 13.5694C110.446 13.6638 110.485 13.7583 110.485 13.8527V13.9093L110.397 14.5043L110.456 14.6742L111.038 14.9575L111.242 15.2125L111.329 15.4958C111.329 15.5524 111.368 15.6185 111.446 15.6941C111.543 15.7507 111.659 15.8263 111.795 15.9207V16.2323L112.29 16.7139L112.727 17.4788L112.989 17.762C113.105 17.9131 113.193 18.0548 113.251 18.187C113.329 18.3192 113.367 18.4325 113.367 18.5269L113.28 18.6686L112.727 19.1501L112.144 19.915H111.679L111.387 20H110.223V19.7167L110.048 19.3768V19.1501L110.019 18.8669C109.961 18.7724 109.912 18.678 109.873 18.5836C109.835 18.4703 109.805 18.3475 109.786 18.2153H109.553L109.437 17.9037L108.971 16.9405L108.854 16.4873L108.155 15.2691C108.117 15.1747 108.088 15.0803 108.068 14.9858C108.049 14.8914 108.039 14.7875 108.039 14.6742V14.4476C107.981 14.4098 107.932 14.3815 107.893 14.3626C107.855 14.3248 107.816 14.2965 107.777 14.2776L107.631 14.1076C107.457 13.8244 107.321 13.5694 107.224 13.3428C107.146 13.1161 107.088 12.9178 107.049 12.7479L106.554 12.5496H107.719C107.66 12.7573 107.583 12.9178 107.486 13.0312C107.408 13.1256 107.311 13.1728 107.195 13.1728H105.972L104.516 12.8895L102.711 13.1445H101.546L101.313 13.1161L100.876 13.2578H99.7116C99.6534 13.2767 99.5951 13.2956 99.5369 13.3144C99.4787 13.3333 99.4204 13.3428 99.3622 13.3428H98.1102L97.7899 13.3144L97.557 13.3711L96.9746 13.3994C96.8388 13.4372 96.7126 13.5411 96.5961 13.711C96.4797 13.8621 96.3632 14.0793 96.2467 14.3626L95.9847 14.9009L95.8391 14.9292C95.7615 15.1747 95.6838 15.3919 95.6062 15.5807C95.5285 15.7507 95.4606 15.8829 95.4023 15.9773C95.3247 16.1095 95.2374 16.2512 95.1403 16.4023C95.0432 16.5534 94.9171 16.7328 94.7618 16.9405V17.2238L94.558 17.5354L93.7718 19.2351C93.733 19.2918 93.6553 19.3484 93.5389 19.4051C93.4418 19.4618 93.3059 19.5184 93.1312 19.5751L93.1603 19.8017C93.0827 19.8017 92.9954 19.8017 92.8983 19.8017C92.8207 19.8206 92.743 19.83 92.6654 19.83L91.5007 19.8584C91.3842 19.8395 91.2581 19.8017 91.1222 19.745C90.9863 19.6884 90.8504 19.6128 90.7145 19.5184L90.6854 19.5467ZM97.819 11.6147L97.7026 11.9547L97.9355 11.983L98.1684 12.0397H99.4204L100.672 12.0963L101.255 12.068H102.419L102.914 12.238H101.75C101.808 12.1813 101.857 12.1435 101.895 12.1246C101.954 12.0869 101.992 12.068 102.012 12.068C102.012 12.068 102.089 12.0585 102.245 12.0397C102.419 12.0208 102.662 12.0019 102.973 11.983L103.38 11.9263H104.545L104.458 12.0963L104.603 12.153H103.439C103.477 12.153 103.516 12.1341 103.555 12.0963C103.613 12.0585 103.671 12.0019 103.73 11.9263L104.108 11.898C104.399 11.8791 104.652 11.8602 104.865 11.8414C105.098 11.8225 105.283 11.8036 105.419 11.7847C105.535 11.7847 105.632 11.7753 105.71 11.7564C105.787 11.7375 105.846 11.7186 105.884 11.6997C105.943 11.6619 106.011 11.6242 106.088 11.5864C106.166 11.5297 106.243 11.4636 106.321 11.3881L106.205 11.2748L106.292 11.1898L106.234 11.0765H105.913C105.836 10.9821 105.778 10.8499 105.739 10.6799C105.7 10.491 105.671 10.2738 105.651 10.0283L105.622 9.74504L105.069 9.6034L104.399 8.30028H104.196L103.322 6.62889L103.468 6.31728L103.38 5.94901L102.711 5.63739L101.721 3.71105H101.692C101.633 3.88102 101.585 4.03211 101.546 4.16431C101.527 4.27762 101.497 4.37205 101.459 4.44759C101.439 4.50425 101.391 4.56091 101.313 4.61756C101.255 4.67422 101.177 4.74976 101.08 4.84419C100.964 4.93862 100.867 5.04249 100.789 5.15581C100.731 5.26912 100.692 5.38244 100.672 5.49575L100.614 5.80736L100.003 7.19547C99.9251 7.34655 99.8669 7.47875 99.8281 7.59207C99.7893 7.6865 99.7504 7.76204 99.7116 7.8187C99.6922 7.87535 99.6534 7.93201 99.5951 7.98867C99.5369 8.04533 99.4787 8.10198 99.4204 8.15864L99.304 8.47025C99.2846 8.5458 99.2555 8.6119 99.2166 8.66856C99.1972 8.72521 99.1778 8.77243 99.1584 8.8102C99.1196 8.82908 99.071 8.84797 99.0128 8.86686C98.9546 8.86686 98.8866 8.86686 98.809 8.86686L98.7799 9.2068C98.7605 9.45231 98.7216 9.66006 98.6634 9.83003C98.6246 10 98.5858 10.1322 98.547 10.2266C98.4887 10.3399 98.4111 10.4438 98.314 10.5382C98.217 10.6327 98.0908 10.7271 97.9355 10.8215L98.1975 11.2181L97.9646 11.3031C97.9452 11.322 97.9161 11.3598 97.8773 11.4164C97.8578 11.4731 97.8384 11.5392 97.819 11.6147Z" fill="#05BCB9"/>
<path d="M113.7 2.94617L113.379 2.46459L113.467 2.20963L113.496 1.983C113.496 1.94523 113.515 1.90746 113.554 1.86969C113.612 1.81303 113.68 1.74693 113.758 1.67139C113.913 1.67139 114.059 1.6525 114.195 1.61473C114.35 1.57696 114.496 1.5203 114.631 1.44476C114.728 1.36922 114.826 1.26534 114.923 1.13314C115.039 1.00094 115.156 0.840415 115.272 0.651558C115.35 0.613786 115.418 0.5949 115.476 0.5949C115.534 0.576014 115.573 0.566572 115.592 0.566572H116.757C116.757 0.566572 116.767 0.566572 116.786 0.566572C116.805 0.566572 116.815 0.566572 116.815 0.566572C116.835 0.585457 116.854 0.5949 116.873 0.5949C116.912 0.5949 116.941 0.5949 116.961 0.5949L117.106 1.13314L117.252 1.52975C117.252 1.5864 117.233 1.64306 117.194 1.69972C117.155 1.75637 117.097 1.81303 117.019 1.86969L117.339 1.89802L117.398 2.20963L117.601 3.05949L117.63 3.28612C117.63 3.38055 117.611 3.47498 117.572 3.5694C117.533 3.64495 117.465 3.72993 117.368 3.82436L117.689 3.88102L117.747 4.22096C117.747 4.31539 117.757 4.39093 117.776 4.44759C117.815 4.50425 117.844 4.54202 117.863 4.56091L118.184 4.84419L118.475 5.86402L119.028 6.68555L119.115 7.47875L119.494 8.07365L119.348 8.55524V8.89518C119.348 8.97073 119.348 9.04627 119.348 9.12181C119.348 9.17847 119.358 9.22568 119.377 9.26346L119.436 9.37677C119.436 9.37677 119.455 9.38621 119.494 9.4051C119.533 9.4051 119.581 9.42399 119.64 9.46176H118.475C118.514 9.42399 118.543 9.39566 118.562 9.37677C118.582 9.339 118.611 9.31067 118.65 9.29179C118.669 9.2729 118.688 9.26346 118.708 9.26346C118.747 9.24457 118.776 9.23513 118.795 9.23513H119.96L120.076 9.34844L120.542 10.7365L121.212 12.2096C121.212 12.2285 121.212 12.2568 121.212 12.2946C121.212 12.3135 121.222 12.3418 121.241 12.3796C121.241 12.3985 121.241 12.4268 121.241 12.4646C121.241 12.4835 121.241 12.5118 121.241 12.5496L121.212 13.0878C121.251 13.1256 121.28 13.1634 121.299 13.2011C121.338 13.2389 121.367 13.2767 121.387 13.3144C121.406 13.3711 121.425 13.4183 121.445 13.4561C121.464 13.4939 121.474 13.5316 121.474 13.5694H120.309C120.367 13.5316 120.416 13.5033 120.455 13.4844C120.513 13.4655 120.552 13.4561 120.571 13.4561H121.736C121.775 13.4561 121.814 13.475 121.852 13.5127C121.891 13.5316 121.92 13.56 121.94 13.5977L122.173 14.3626L122.901 15.6657L122.842 16.1473V16.1756C122.842 16.1945 122.842 16.204 122.842 16.204L123.745 13.966L124.153 13.3428C124.153 13.2483 124.162 13.1634 124.182 13.0878C124.221 13.0123 124.259 12.9651 124.298 12.9462C124.337 12.9084 124.386 12.8895 124.444 12.8895C124.502 12.8706 124.589 12.8612 124.706 12.8612V12.4929C124.706 12.3418 124.716 12.2002 124.735 12.068C124.754 11.9169 124.793 11.7753 124.851 11.6431L124.706 11.4448L125.055 10.6799L125.376 9.71671L125.812 9.43343C125.87 9.39566 125.909 9.35788 125.929 9.32011C125.968 9.28234 125.987 9.24457 125.987 9.2068L125.841 8.55524L126.54 6.65722L126.569 6.45892L126.54 6.14731L126.773 5.94901L126.569 5.07082L126.686 4.92918L126.54 4.70255L126.802 4.27762L126.744 4.13598L126.89 3.96601C126.89 3.87158 126.89 3.78659 126.89 3.71105C126.909 3.6355 126.928 3.57885 126.948 3.54108C126.948 3.54108 126.987 3.47498 127.064 3.34278C127.142 3.21058 127.249 3.00283 127.385 2.71955L127.618 2.29462C127.54 2.21907 127.482 2.15297 127.443 2.09632C127.404 2.03966 127.385 1.99245 127.385 1.95467C127.385 1.87913 127.404 1.79415 127.443 1.69972C127.482 1.60529 127.54 1.50142 127.618 1.3881L127.763 1.24646L128.753 1.01983L129.656 0.679886H130.82C130.976 0.717657 131.082 0.7932 131.141 0.906516C131.218 1.00094 131.257 1.1237 131.257 1.27479C131.257 1.3881 131.238 1.50142 131.199 1.61473C131.16 1.72804 131.112 1.83192 131.053 1.92635L130.849 2.29462L130.675 3.03116L129.714 5.04249L129.365 6.45892L129.073 6.77054C129.073 6.90274 129.064 7.0255 129.044 7.13881C129.044 7.25212 129.025 7.33711 128.986 7.39377C128.947 7.45042 128.889 7.51653 128.811 7.59207C128.753 7.66761 128.675 7.7526 128.578 7.84703L128.083 8.30028C128.083 8.64023 128.064 8.93295 128.025 9.17847C127.986 9.4051 127.918 9.59396 127.821 9.74504L127.239 10.6799L126.744 12.3513C126.608 12.6534 126.501 12.899 126.424 13.0878C126.346 13.2767 126.307 13.4183 126.307 13.5127C126.307 13.5316 126.307 13.56 126.307 13.5977C126.307 13.6355 126.317 13.6827 126.336 13.7394L126.162 14.0227L125.9 14.7875L125.667 15.1841L125.492 15.9773L125.201 16.6572L125.23 17.1671L124.706 17.9037C124.667 17.9603 124.638 18.0359 124.618 18.1303C124.599 18.2059 124.589 18.3003 124.589 18.4136L124.094 18.7252C123.726 18.9707 123.386 19.1596 123.075 19.2918C122.784 19.424 122.522 19.509 122.289 19.5467L121.124 19.5751L120.804 19.0652L120.164 17.3088L119.843 16.204L119.872 15.8074L119.727 15.4958H120.892L120.775 15.5524H119.61L119.174 14.3626L119.348 14.051C119.31 14.0321 119.271 14.0227 119.232 14.0227C119.193 14.0038 119.164 13.9849 119.145 13.966C119.106 13.966 119.077 13.966 119.057 13.966C119.038 13.9471 119.018 13.9282 118.999 13.9093C118.98 13.8905 118.96 13.8716 118.941 13.8527C118.921 13.8338 118.912 13.8149 118.912 13.796C118.892 13.7771 118.873 13.7488 118.853 13.711C118.834 13.6733 118.815 13.6355 118.795 13.5977C118.834 13.5222 118.863 13.4561 118.882 13.3994C118.902 13.3428 118.912 13.2861 118.912 13.2295V13.1445L118.882 13.0028L118.65 12.7479L118.213 12.4929C118.174 12.4551 118.145 12.4079 118.125 12.3513C118.106 12.2757 118.096 12.1813 118.096 12.068L118.125 11.6997L118.009 11.4731L117.893 11.0198L117.456 10.6799L116.961 9.4051L116.728 9.03683V8.64023L116.378 8.18697L116.844 7.8187L116.582 7.53541H117.747L117.456 7.56374H116.291C116.272 7.56374 116.243 7.56374 116.204 7.56374C116.165 7.54485 116.116 7.52597 116.058 7.50708L115.185 5.86402C115.243 5.78848 115.282 5.72238 115.301 5.66572C115.34 5.60907 115.359 5.55241 115.359 5.49575L115.272 5.18414L114.806 5.01416L114.399 4.22096L114.107 3.85269L114.02 3.25779L113.874 2.94617H113.7Z" fill="#05BCB9"/>
<path d="M131.318 19.5467L131.842 18.6402L132.25 18.1586L132.541 17.6204L132.774 17.3371L132.949 17.0822V16.9688C133.162 16.9311 133.317 16.8744 133.414 16.7989C133.512 16.7044 133.56 16.5911 133.56 16.4589V16.0907L133.997 15.5807L134.608 14.2776L134.958 13.8244L135.365 12.9462L135.802 12.0963L136.355 11.1898L136.938 10.6516L136.996 10.5099C136.996 10.4721 136.986 10.4344 136.967 10.3966C136.947 10.3588 136.918 10.3116 136.879 10.255C136.976 10.1794 137.054 10.1228 137.112 10.085C137.171 10.0283 137.209 9.99056 137.229 9.97167C137.268 9.9339 137.297 9.88669 137.316 9.83003C137.355 9.77337 137.394 9.70727 137.433 9.63173L137.258 9.34844L137.462 9.09348L137.695 8.44193C137.695 8.40416 137.724 8.35694 137.782 8.30028C137.84 8.22474 137.918 8.1492 138.015 8.07365L137.986 7.96034L138.655 6.34561L139.15 5.07082C139.189 4.95751 139.257 4.82531 139.354 4.67422C139.451 4.52314 139.587 4.35316 139.762 4.16431L139.645 3.88102L139.733 3.48442C139.791 3.29556 139.849 3.14448 139.907 3.03116C139.966 2.91785 140.014 2.83286 140.053 2.7762C140.092 2.75732 140.16 2.73843 140.257 2.71955C140.354 2.68178 140.5 2.644 140.694 2.60623L140.752 2.40793L140.606 1.983L140.577 1.75637C140.577 1.69972 140.587 1.64306 140.606 1.5864C140.626 1.52974 140.665 1.49197 140.723 1.47309L141.713 0.849858L141.887 0.424929C141.984 0.311615 142.091 0.217186 142.208 0.141643C142.344 0.0660998 142.499 0.0188855 142.674 0H143.838L144.013 0.5949H142.848L143.052 0.566572H144.217L144.159 0.708215L144.362 1.13314L144.741 1.67139L145.265 2.60623L145.556 3.34278L145.935 3.96601L145.556 4.10765C145.556 4.14542 145.566 4.19263 145.585 4.24929C145.605 4.28706 145.643 4.32483 145.702 4.36261C145.876 4.45703 146.003 4.55146 146.08 4.64589C146.177 4.72144 146.226 4.80642 146.226 4.90085L146.197 5.12748L146.517 5.49575L146.866 6.11898L147.099 6.43059V6.57224L147.012 6.8272L147.07 7.11048L147.274 7.36544L147.653 7.67705L148.148 8.64023L148.41 9.09348L148.439 9.4051C148.613 9.57507 148.74 9.71671 148.817 9.83003C148.914 9.94334 148.963 10.0472 148.963 10.1416C148.963 10.1605 148.963 10.1794 148.963 10.1983C148.963 10.1983 148.963 10.2077 148.963 10.2266C148.943 10.2455 148.934 10.2644 148.934 10.2833C148.934 10.3022 148.934 10.3211 148.934 10.3399L149.196 10.6232L149.836 11.6714L149.924 11.7847L150.011 11.9263C150.03 11.9452 150.05 11.983 150.069 12.0397C150.108 12.0774 150.147 12.1246 150.186 12.1813L150.244 12.3229L150.302 12.4363C150.399 12.5685 150.467 12.6818 150.506 12.7762C150.545 12.8517 150.574 12.899 150.593 12.9178C150.593 12.9745 150.593 13.0406 150.593 13.1161C150.613 13.1728 150.632 13.2389 150.652 13.3144C150.807 13.39 150.923 13.475 151.001 13.5694C151.079 13.6638 151.117 13.7583 151.117 13.8527V13.9093L151.03 14.5043L151.088 14.6742L151.671 14.9575L151.874 15.2125L151.962 15.4958C151.962 15.5524 152.001 15.6185 152.078 15.6941C152.175 15.7507 152.292 15.8263 152.428 15.9207V16.2323L152.923 16.7139L153.359 17.4788L153.621 17.762C153.738 17.9131 153.825 18.0548 153.884 18.187C153.961 18.3192 154 18.4325 154 18.5269L153.913 18.6686L153.359 19.1501L152.777 19.915H152.311L152.02 20H150.855V19.7167L150.681 19.3768V19.1501L150.652 18.8669C150.593 18.7724 150.545 18.678 150.506 18.5836C150.467 18.4703 150.438 18.3475 150.419 18.2153H150.186L150.069 17.9037L149.603 16.9405L149.487 16.4873L148.788 15.2691C148.749 15.1747 148.72 15.0803 148.701 14.9858C148.681 14.8914 148.672 14.7875 148.672 14.6742V14.4476C148.613 14.4098 148.565 14.3815 148.526 14.3626C148.487 14.3248 148.448 14.2965 148.41 14.2776L148.264 14.1076C148.089 13.8244 147.953 13.5694 147.856 13.3428C147.779 13.1161 147.72 12.9178 147.682 12.7479L147.187 12.5496H148.351C148.293 12.7573 148.215 12.9178 148.118 13.0312C148.041 13.1256 147.944 13.1728 147.827 13.1728H146.604L145.149 12.8895L143.343 13.1445H142.179L141.946 13.1161L141.509 13.2578H140.344C140.286 13.2767 140.228 13.2956 140.17 13.3144C140.111 13.3333 140.053 13.3428 139.995 13.3428H138.743L138.423 13.3144L138.19 13.3711L137.607 13.3994C137.471 13.4372 137.345 13.5411 137.229 13.711C137.112 13.8621 136.996 14.0793 136.879 14.3626L136.617 14.9009L136.472 14.9292C136.394 15.1747 136.316 15.3919 136.239 15.5807C136.161 15.7507 136.093 15.8829 136.035 15.9773C135.957 16.1095 135.87 16.2512 135.773 16.4023C135.676 16.5534 135.55 16.7328 135.394 16.9405V17.2238L135.191 17.5354L134.404 19.2351C134.366 19.2918 134.288 19.3484 134.171 19.4051C134.074 19.4618 133.939 19.5184 133.764 19.5751L133.793 19.8017C133.715 19.8017 133.628 19.8017 133.531 19.8017C133.453 19.8206 133.376 19.83 133.298 19.83L132.133 19.8584C132.017 19.8395 131.891 19.8017 131.755 19.745C131.619 19.6884 131.483 19.6128 131.347 19.5184L131.318 19.5467ZM138.452 11.6147L138.335 11.9547L138.568 11.983L138.801 12.0397H140.053L141.305 12.0963L141.887 12.068H143.052L143.547 12.238H142.382C142.441 12.1813 142.489 12.1435 142.528 12.1246C142.586 12.0869 142.625 12.068 142.644 12.068C142.644 12.068 142.722 12.0585 142.877 12.0397C143.052 12.0208 143.295 12.0019 143.605 11.983L144.013 11.9263H145.178L145.09 12.0963L145.236 12.153H144.071C144.11 12.153 144.149 12.1341 144.188 12.0963C144.246 12.0585 144.304 12.0019 144.362 11.9263L144.741 11.898C145.032 11.8791 145.284 11.8602 145.498 11.8414C145.731 11.8225 145.915 11.8036 146.051 11.7847C146.168 11.7847 146.265 11.7753 146.342 11.7564C146.42 11.7375 146.478 11.7186 146.517 11.6997C146.575 11.6619 146.643 11.6242 146.721 11.5864C146.798 11.5297 146.876 11.4636 146.954 11.3881L146.837 11.2748L146.925 11.1898L146.866 11.0765H146.546C146.468 10.9821 146.41 10.8499 146.371 10.6799C146.333 10.491 146.303 10.2738 146.284 10.0283L146.255 9.74504L145.702 9.6034L145.032 8.30028H144.828L143.955 6.62889L144.1 6.31728L144.013 5.94901L143.343 5.63739L142.353 3.71105H142.324C142.266 3.88102 142.217 4.03211 142.179 4.16431C142.159 4.27762 142.13 4.37205 142.091 4.44759C142.072 4.50425 142.023 4.56091 141.946 4.61756C141.887 4.67422 141.81 4.74976 141.713 4.84419C141.596 4.93862 141.499 5.04249 141.422 5.15581C141.363 5.26912 141.325 5.38244 141.305 5.49575L141.247 5.80736L140.635 7.19547C140.558 7.34655 140.5 7.47875 140.461 7.59207C140.422 7.6865 140.383 7.76204 140.344 7.8187C140.325 7.87535 140.286 7.93201 140.228 7.98867C140.17 8.04533 140.111 8.10198 140.053 8.15864L139.937 8.47025C139.917 8.5458 139.888 8.6119 139.849 8.66856C139.83 8.72521 139.81 8.77243 139.791 8.8102C139.752 8.82908 139.704 8.84797 139.645 8.86686C139.587 8.86686 139.519 8.86686 139.442 8.86686L139.413 9.2068C139.393 9.45231 139.354 9.66006 139.296 9.83003C139.257 10 139.218 10.1322 139.18 10.2266C139.121 10.3399 139.044 10.4438 138.947 10.5382C138.85 10.6327 138.723 10.7271 138.568 10.8215L138.83 11.2181L138.597 11.3031C138.578 11.322 138.549 11.3598 138.51 11.4164C138.49 11.4731 138.471 11.5392 138.452 11.6147Z" fill="#05BCB9"/>
</svg>
