<svg width="32" height="32" viewBox="0 0 32 32" fill="none" xmlns="http://www.w3.org/2000/svg">
<circle cx="16" cy="16" r="16" fill="#D6FFFE"/>
<path d="M26.3333 16.0003C26.3333 16.316 26.1549 16.6045 25.8726 16.7457L10.8726 24.2457C10.5851 24.3895 10.2405 24.355 9.98708 24.1572C9.73367 23.9593 9.61667 23.6334 9.68642 23.3196L11.3129 16.0003L9.68642 8.68111C9.61667 8.36728 9.73367 8.04133 9.98708 7.84349C10.2405 7.64565 10.5851 7.61121 10.8726 7.75497L25.8726 15.255C26.1549 15.3962 26.3333 15.6847 26.3333 16.0003ZM12.8351 16.8337L11.6933 21.972L21.9699 16.8337L12.8351 16.8337ZM21.9699 15.167L11.6933 10.0287L12.8351 15.167L21.9699 15.167Z" fill="#1DC0BD"/>
</svg>
