<svg width="223" height="128" viewBox="0 0 223 128" fill="none" xmlns="http://www.w3.org/2000/svg">
<path d="M221.536 33.9645C223.488 35.9171 223.488 39.0829 221.536 41.0355L189.716 72.8553C187.763 74.808 184.597 74.808 182.645 72.8553C180.692 70.9027 180.692 67.7369 182.645 65.7843L210.929 37.5L182.645 9.21573C180.692 7.26311 180.692 4.09728 182.645 2.14466C184.597 0.192039 187.763 0.192039 189.716 2.14466L221.536 33.9645ZM5 128C2.23858 128 0 125.761 0 123C0 120.239 2.23858 118 5 118V128ZM218 42.5H160.542V32.5H218V42.5ZM125.542 77.5V83H115.542V77.5H125.542ZM80.5425 128H5V118H80.5425V128ZM125.542 83C125.542 107.853 105.395 128 80.5425 128V118C99.8724 118 115.542 102.33 115.542 83H125.542ZM160.542 42.5C141.212 42.5 125.542 58.17 125.542 77.5H115.542C115.542 52.6472 135.69 32.5 160.542 32.5V42.5Z" fill="#F5F5F5"/>
</svg>
