<svg width="150" height="150" viewBox="0 0 150 150" fill="none" xmlns="http://www.w3.org/2000/svg">
<path d="M31.4742 84.825L4.6875 93.7524L9.375 105.469L38.5453 94.8609" fill="#03A19F"/>
<path d="M30.4687 85.1602L4.6875 93.7523L7.16953 99.9563L35.175 90.6211" fill="#05BCB9"/>
<path d="M96.0938 56.25H133.594V82.0312H96.0938V56.25Z" fill="#777777"/>
<path d="M100.781 67.9688C100.781 73.1461 104.979 77.3438 110.156 77.3438H133.594V56.25H100.781V67.9688Z" fill="#969696"/>
<path d="M62.8829 84.6609L84.3751 100.781L128.906 82.0336L131.25 89.0648L145.313 70.3148L121.875 63.2812L124.219 70.3148L86.7142 86.7141L69.7454 73.1367" fill="#03A19F"/>
<path d="M66.9727 78.9445L86.7187 93.75L145.312 70.3148L121.875 63.2812L124.219 70.3148L86.7187 86.7188L74.4961 76.9711" fill="#05BCB9"/>
<path d="M135.938 121.875V112.5H132.98C132.537 110.784 131.862 109.167 130.983 107.677L133.073 105.586L126.445 98.9578L124.355 101.048C122.866 100.17 121.247 99.4945 119.531 99.0516V96.0938H110.156V99.0516C108.441 99.4945 106.823 100.17 105.333 101.048L103.242 98.9578L96.6141 105.586L98.7047 107.677C97.8258 109.165 97.1508 110.784 96.7078 112.5H93.75V121.875H96.7078C97.1508 123.591 97.8258 125.208 98.7047 126.698L96.6141 128.789L103.242 135.417L105.333 133.327C106.821 134.205 108.441 134.88 110.156 135.323V138.281H119.531V135.323C121.247 134.88 122.864 134.205 124.355 133.327L126.445 135.417L133.073 128.789L130.983 126.698C131.862 125.21 132.537 123.593 132.98 121.875H135.938Z" fill="#E7B541"/>
<path d="M130.983 107.677L133.073 105.586L126.445 98.9578L124.355 101.048C122.866 100.17 121.247 99.4945 119.531 99.0516V96.0938H110.156V99.0516C108.441 99.4945 106.823 100.17 105.333 101.048L103.242 98.9578L102.11 100.09C101.264 102.511 100.781 105.103 100.781 107.812C100.781 120.757 111.274 131.25 124.219 131.25C126.928 131.25 129.52 130.767 131.941 129.921L133.073 128.789L130.983 126.698C131.862 125.21 132.537 123.593 132.98 121.875H135.938V112.5H132.98C132.537 110.784 131.862 109.167 130.983 107.677V107.677Z" fill="#F9CB6E"/>
<path d="M135.938 9.375V24.2344C135.938 28.5 135.094 32.6484 133.5 36.4922C131.906 40.3359 129.562 43.875 126.562 46.875H103.125L100.172 43.9219C98.1094 41.8594 96.5156 39.4453 95.4141 36.7969C94.3359 34.1719 93.75 31.3125 93.75 28.4062C93.75 26.6719 94.1484 24.9844 94.9219 23.4375C95.6953 21.8906 96.0938 20.2031 96.0938 18.4688V11.7188C96.9141 11.7188 97.6875 11.8125 98.4375 12.0234V9.375C98.4375 8.08594 98.9531 6.91406 99.8203 6.07031C100.664 5.20312 101.836 4.6875 103.125 4.6875C105.703 4.6875 107.812 6.79687 107.812 9.375C107.812 8.08594 108.328 6.91406 109.195 6.07031C110.039 5.20312 111.211 4.6875 112.5 4.6875C115.078 4.6875 117.188 6.79687 117.188 9.375C117.188 8.08594 117.703 6.91406 118.57 6.07031C119.414 5.20312 120.586 4.6875 121.875 4.6875C124.453 4.6875 126.562 6.79687 126.562 9.375C126.562 8.08594 127.078 6.91406 127.945 6.07031C128.789 5.20312 129.961 4.6875 131.25 4.6875C133.828 4.6875 135.938 6.79687 135.938 9.375Z" fill="#EEB9AD"/>
<path d="M131.109 34.2633C131.126 34.2258 131.142 34.1859 131.159 34.1484C132.75 30.3047 133.594 26.1563 133.594 21.8906V7.29375C133.594 6.50156 133.392 5.73984 133.059 5.05312C132.502 4.81875 131.89 4.6875 131.25 4.6875C129.961 4.6875 128.789 5.20312 127.945 6.07031C127.078 6.91406 126.562 8.08594 126.562 9.375C126.562 6.79687 124.453 4.6875 121.875 4.6875C120.586 4.6875 119.414 5.20312 118.57 6.07031C117.703 6.91406 117.188 8.08594 117.188 9.375C117.188 6.79687 115.078 4.6875 112.5 4.6875C111.211 4.6875 110.039 5.20312 109.195 6.07031C108.328 6.91406 107.812 8.08594 107.812 9.375C107.812 6.79687 105.703 4.6875 103.125 4.6875C101.836 4.6875 100.664 5.20312 99.8203 6.07031C98.9531 6.91406 98.4375 8.08594 98.4375 9.375V12.0234C97.6875 11.8125 96.9141 11.7188 96.0938 11.7188V18.4688C96.0938 20.2031 95.6953 21.8906 94.9219 23.4375C94.1484 24.9844 93.75 26.6719 93.75 28.4062C93.75 31.3125 94.3359 34.1719 95.4141 36.7969C96.5156 39.4453 98.1094 41.8594 100.172 43.9219L100.781 44.5312H115.177C122.041 44.5312 128.454 40.5938 131.109 34.2633V34.2633Z" fill="#FFE2D5"/>
<path d="M131.25 4.6875C129.961 4.6875 128.789 5.20312 127.945 6.07031C127.078 6.91406 126.562 8.08594 126.562 9.375C126.562 6.79687 124.453 4.6875 121.875 4.6875C120.586 4.6875 119.414 5.20312 118.57 6.07031C117.703 6.91406 117.188 8.08594 117.188 9.375C117.188 6.79687 115.078 4.6875 112.5 4.6875C111.211 4.6875 110.039 5.20312 109.195 6.07031C108.328 6.91406 107.812 8.08594 107.812 9.375C107.812 6.79687 105.703 4.6875 103.125 4.6875C101.836 4.6875 100.664 5.20312 99.8203 6.07031C98.9531 6.91406 98.4375 8.08594 98.4375 9.375V12.0234C97.6875 11.8125 96.9141 11.7188 96.0938 11.7188V18.4688V18.75C96.0938 22.6336 99.2414 25.7812 103.125 25.7812C104.934 25.7812 106.566 25.0781 107.812 23.9555C109.059 25.0781 110.691 25.7812 112.5 25.7812C114.309 25.7812 115.941 25.0781 117.188 23.9555C118.434 25.0781 120.066 25.7812 121.875 25.7812C124.376 25.7812 126.558 24.4664 127.805 22.5C128.827 23.0789 129.991 23.4375 131.25 23.4375C133.059 23.4375 134.691 22.7344 135.938 21.6117V9.375C135.938 6.79687 133.828 4.6875 131.25 4.6875Z" fill="#DDA89F"/>
<path d="M37.5 103.125L20.4633 107.993C11.1258 110.66 4.6875 119.196 4.6875 128.906V145.312H89.0625V128.906C89.0625 119.196 82.6242 110.66 73.2867 107.993L56.25 103.125H37.5Z" fill="#B5B5B5"/>
<path d="M73.2867 107.993L56.25 103.125H46.875L29.8383 107.993C20.5008 110.66 14.0625 119.196 14.0625 128.906V145.312H89.0625V128.906C89.0625 119.196 82.6242 110.66 73.2867 107.993Z" fill="#C9C9C9"/>
<path d="M37.5 96.2437V103.125L46.875 107.812L56.25 103.125V96.2437H37.5Z" fill="#EEB9AD"/>
<path d="M18.75 67.418V49.2188C18.75 37.568 28.193 28.125 39.8438 28.125H56.25C61.4273 28.125 65.625 32.3227 65.625 37.5H65.6273C70.8047 37.5 75 41.6977 75 46.875V67.432" fill="#3F4042"/>
<path d="M75 46.8726C75 41.6953 70.8047 37.5 65.6273 37.4976H65.625C65.625 32.3203 61.4273 28.1226 56.25 28.1226H39.8438C34.0523 28.1226 28.8117 30.4593 24.9984 34.2351C24 36.6937 23.4375 39.3726 23.4375 42.1875V51.0117C23.4375 56.189 27.6352 60.3867 32.8125 60.389L75 60.3984V46.8726Z" fill="#5A5B5D"/>
<path d="M67.9688 63.2812V77.3438C67.9688 88.9945 58.5258 98.4375 46.875 98.4375C35.2242 98.4375 25.7812 88.9945 25.7812 77.3438V63.2812H38.9414C46.5633 63.2812 53.4188 58.6406 56.25 51.5625L67.9688 63.2812Z" fill="#EEB9AD"/>
<path d="M25.7812 65.625H23.4375C19.5539 65.625 16.4062 68.7727 16.4062 72.6562C16.4062 76.5398 19.5539 79.6875 23.4375 79.6875H25.9125" fill="#EEB9AD"/>
<path d="M67.9687 65.625H70.3124C74.196 65.625 77.3437 68.7727 77.3437 72.6562C77.3437 76.5398 74.196 79.6875 70.3124 79.6875H67.8374" fill="#EEB9AD"/>
<path d="M54.6868 115.624L51.5626 121.875H42.1876L39.0634 115.624L46.8751 107.812L54.6868 115.624Z" fill="#03A19F"/>
<path d="M53.9039 145.312L51.5625 121.875H42.1875L39.8414 145.312H53.9039Z" fill="#03A19F"/>
<path d="M72.6562 131.25H77.3438V145.312H72.6562V131.25Z" fill="#777777"/>
<path d="M16.4062 131.25H21.0938V145.312H16.4062V131.25Z" fill="#777777"/>
<path d="M38.9414 63.2812H30.4688V77.3438C30.4688 88.2 38.6742 97.132 49.2188 98.2992C59.7633 97.132 67.9688 88.2 67.9688 77.3438V63.2812L56.25 51.5625C53.4188 58.6406 46.5633 63.2812 38.9414 63.2812V63.2812Z" fill="#FFE2D5"/>
<path d="M56.25 98.5617C53.4234 99.9703 50.2477 100.781 46.875 100.781C45.2625 100.781 43.6969 100.584 42.1875 100.24V103.125L49.2188 106.641L56.25 103.125V98.5617Z" fill="#FFE2D5"/>
<path d="M46.8749 107.812L37.4999 103.125L26.5616 106.249L37.4999 117.187L46.8749 107.812Z" fill="#B5B5B5"/>
<path d="M56.25 117.187L67.1883 106.249L56.25 103.125L46.875 107.812L56.25 117.187Z" fill="#B5B5B5"/>
<path d="M44.5336 121.875L42.1875 145.312H53.9039L51.5625 121.875H44.5336Z" fill="#05BCB9"/>
<path d="M98.4375 56.25V46.875H131.25V56.25" fill="#C9C9C9"/>
<path d="M114.844 126.562C120.021 126.562 124.219 122.365 124.219 117.188C124.219 112.01 120.021 107.812 114.844 107.812C109.666 107.812 105.469 112.01 105.469 117.188C105.469 122.365 109.666 126.562 114.844 126.562Z" fill="#DDDDDD"/>
<path d="M121.875 23.4375C119.285 23.4375 117.188 21.3398 117.188 18.75V9.375C117.188 6.78516 119.285 4.6875 121.875 4.6875C124.465 4.6875 126.562 6.78516 126.562 9.375V18.75C126.562 21.3398 124.465 23.4375 121.875 23.4375Z" fill="#EEB9AD"/>
<path d="M121.875 4.6875C121.188 4.6875 120.541 4.84453 119.953 5.10938C119.688 5.69766 119.531 6.34453 119.531 7.03125V16.4062C119.531 18.9961 121.629 21.0938 124.219 21.0938C124.905 21.0938 125.552 20.9367 126.141 20.6719C126.405 20.0836 126.562 19.4367 126.562 18.75V9.375C126.562 6.78516 124.465 4.6875 121.875 4.6875Z" fill="#FFE2D5"/>
<path d="M112.5 23.4375C109.91 23.4375 107.812 21.3398 107.812 18.75V9.375C107.812 6.78516 109.91 4.6875 112.5 4.6875C115.09 4.6875 117.188 6.78516 117.188 9.375V18.75C117.188 21.3398 115.09 23.4375 112.5 23.4375Z" fill="#EEB9AD"/>
<path d="M112.5 4.6875C111.813 4.6875 111.166 4.84453 110.578 5.10938C110.313 5.69766 110.156 6.34453 110.156 7.03125V16.4062C110.156 18.9961 112.254 21.0938 114.844 21.0938C115.53 21.0938 116.177 20.9367 116.766 20.6719C117.03 20.0836 117.188 19.4367 117.188 18.75V9.375C117.188 6.78516 115.09 4.6875 112.5 4.6875Z" fill="#FFE2D5"/>
<path d="M103.125 23.4375C100.535 23.4375 98.4375 21.3398 98.4375 18.75V9.375C98.4375 6.78516 100.535 4.6875 103.125 4.6875C105.715 4.6875 107.812 6.78516 107.812 9.375V18.75C107.812 21.3398 105.715 23.4375 103.125 23.4375Z" fill="#EEB9AD"/>
<path d="M103.125 4.6875C102.438 4.6875 101.791 4.84453 101.203 5.10938C100.938 5.69766 100.781 6.34453 100.781 7.03125V16.4062C100.781 18.9961 102.879 21.0938 105.469 21.0938C106.155 21.0938 106.802 20.9367 107.391 20.6719C107.655 20.0836 107.812 19.4367 107.812 18.75V9.375C107.812 6.78516 105.715 4.6875 103.125 4.6875Z" fill="#FFE2D5"/>
<path d="M131.25 21.0938C128.66 21.0938 126.562 18.9961 126.562 16.4062V9.375C126.562 6.78516 128.66 4.6875 131.25 4.6875C133.84 4.6875 135.938 6.78516 135.938 9.375V16.4062C135.938 18.9961 133.84 21.0938 131.25 21.0938Z" fill="#EEB9AD"/>
<path d="M131.25 4.6875C130.563 4.6875 129.916 4.84453 129.328 5.10938C129.063 5.69766 128.906 6.34453 128.906 7.03125V14.0625C128.906 16.6523 131.004 18.75 133.594 18.75C134.28 18.75 134.927 18.593 135.516 18.3281C135.78 17.7398 135.938 17.093 135.938 16.4062V9.375C135.938 6.78516 133.84 4.6875 131.25 4.6875Z" fill="#FFE2D5"/>
<path d="M108.6 27.8695L105.469 25.7812V21.0938C105.469 16.6406 102.356 12.9281 98.1914 11.9742C98.0508 11.9391 97.9055 11.9133 97.7625 11.8875C97.2188 11.7891 96.6656 11.7188 96.0938 11.7188V18.4688C96.0938 20.2031 95.6953 21.8906 94.9219 23.4375C94.1484 24.9844 93.75 26.6719 93.75 28.4062C93.75 30.7195 94.1344 32.9977 94.8305 35.1562H112.5C112.5 32.2266 111.037 29.4937 108.6 27.8695Z" fill="#FFE2D5"/>
<path d="M103.125 21.0938V25.7813C103.125 26.5641 103.516 27.2953 104.168 27.7313L107.299 29.8196C109.087 31.0102 110.156 33.0071 110.156 35.1563H114.844C114.844 31.4344 112.997 27.9821 109.901 25.9196L107.812 24.5274V21.0938C107.812 15.436 103.779 10.7016 98.4375 9.61176V12.0235C97.6875 11.8125 96.9141 11.7188 96.0938 11.7188V14.0625C99.9703 14.0625 103.125 17.2172 103.125 21.0938V21.0938Z" fill="#EEB9AD"/>
<path d="M100.781 49.2188C100.781 51.8086 102.879 53.9062 105.469 53.9062H131.25V46.875H100.781V49.2188Z" fill="#DDDDDD"/>
<path d="M112.5 110.156C110.51 110.156 108.673 110.784 107.154 111.841C106.097 113.36 105.469 115.198 105.469 117.188C105.469 122.365 109.666 126.562 114.844 126.562C116.834 126.562 118.671 125.934 120.19 124.875C121.247 123.359 121.875 121.521 121.875 119.531C121.875 114.354 117.677 110.156 112.5 110.156Z" fill="white"/>
</svg>
