<svg width="150" height="150" viewBox="0 0 150 150" fill="none" xmlns="http://www.w3.org/2000/svg">
<path d="M65.625 103.125L48.5883 107.993C39.2508 110.66 32.8125 119.196 32.8125 128.906V145.312H117.188V128.906C117.188 119.196 110.749 110.66 101.412 107.993L84.375 103.125H65.625Z" fill="#B5B5B5"/>
<path d="M101.412 107.993L84.375 103.125H75L57.9633 107.993C48.6258 110.66 42.1875 119.196 42.1875 128.906V145.312H117.188V128.906C117.188 119.196 110.749 110.66 101.412 107.993Z" fill="#C9C9C9"/>
<path d="M65.625 96.2437V103.125L75 107.812L84.375 103.125V96.2437H65.625Z" fill="#EEB9AD"/>
<path d="M46.875 67.418V49.2188C46.875 37.568 56.318 28.125 67.9688 28.125H84.375C89.5523 28.125 93.75 32.3227 93.75 37.5H93.7523C98.9297 37.5 103.125 41.6977 103.125 46.875V67.432" fill="#3F4042"/>
<path d="M103.125 46.8726C103.125 41.6953 98.9297 37.5 93.7523 37.4976H93.75C93.75 32.3203 89.5523 28.1226 84.375 28.1226H67.9688C62.1773 28.1226 56.9367 30.4593 53.1234 34.2351C52.125 36.6937 51.5625 39.3726 51.5625 42.1875V51.0117C51.5625 56.189 55.7602 60.3867 60.9375 60.389L103.125 60.3984V46.8726Z" fill="#5A5B5D"/>
<path d="M96.0938 63.2812V77.3438C96.0938 88.9945 86.6508 98.4375 75 98.4375C63.3492 98.4375 53.9062 88.9945 53.9062 77.3438V63.2812H67.0664C74.6883 63.2812 81.5438 58.6406 84.375 51.5625L96.0938 63.2812Z" fill="#EEB9AD"/>
<path d="M53.9062 65.625H51.5625C47.6789 65.625 44.5312 68.7727 44.5312 72.6562C44.5312 76.5398 47.6789 79.6875 51.5625 79.6875H54.0375" fill="#EEB9AD"/>
<path d="M96.0937 65.625H98.4374C102.321 65.625 105.469 68.7727 105.469 72.6562C105.469 76.5398 102.321 79.6875 98.4374 79.6875H95.9624" fill="#EEB9AD"/>
<path d="M82.8117 115.624L79.6875 121.875H70.3125L67.1882 115.624L75 107.812L82.8117 115.624Z" fill="#03A19F"/>
<path d="M82.0288 145.312L79.6874 121.875H70.3124L67.9663 145.312H82.0288Z" fill="#03A19F"/>
<path d="M100.781 131.25H105.469V145.312H100.781V131.25Z" fill="#777777"/>
<path d="M44.5312 131.25H49.2188V145.312H44.5312V131.25Z" fill="#777777"/>
<path d="M67.0664 63.2812H58.5938V77.3438C58.5938 88.2 66.7992 97.132 77.3438 98.2992C87.8883 97.132 96.0938 88.2 96.0938 77.3438V63.2812L84.375 51.5625C81.5438 58.6406 74.6883 63.2812 67.0664 63.2812V63.2812Z" fill="#FFE2D5"/>
<path d="M84.375 98.5617C81.5484 99.9703 78.3727 100.781 75 100.781C73.3875 100.781 71.8219 100.584 70.3125 100.24V103.125L77.3438 106.641L84.375 103.125V98.5617Z" fill="#FFE2D5"/>
<path d="M75 107.812L65.625 103.125L54.6868 106.249L65.625 117.187L75 107.812Z" fill="#B5B5B5"/>
<path d="M84.375 117.187L95.3133 106.249L84.375 103.125L75 107.812L84.375 117.187Z" fill="#B5B5B5"/>
<path d="M72.6586 121.875L70.3125 145.312H82.0289L79.6875 121.875H72.6586Z" fill="#05BCB9"/>
<path d="M30.4688 30.4688L42.1875 37.5L39.8438 25.7812L46.875 18.75L35.1562 16.4062L30.4664 4.6875L25.7812 16.4062L14.0625 18.75L21.0938 25.7812L18.75 37.5L30.4688 30.4688Z" fill="#E7B541"/>
<path d="M21.0938 72.6562L32.8125 79.6875L30.4688 67.9688L37.5 60.9375L25.7812 58.5938L21.0914 46.875L16.4062 58.5938L4.6875 60.9375L11.7188 67.9688L9.375 79.6875L21.0938 72.6562Z" fill="#E7B541"/>
<path d="M21.0938 72.6562L32.8125 79.6875L30.4688 67.9688L37.5 60.9375L25.7812 58.5938L23.4375 52.7344L21.0938 58.5938L9.375 60.9375L16.4062 67.9688L14.7023 76.4906L21.0938 72.6562Z" fill="#F9CB6E"/>
<path d="M30.4688 30.4688L42.1875 37.5L39.8438 25.7812L46.875 18.75L35.1562 16.4062L32.8125 10.5469L30.4688 16.4062L18.75 18.75L25.7812 25.7812L24.0773 34.3031L30.4688 30.4688Z" fill="#F9CB6E"/>
<path d="M119.531 30.4688L131.25 37.5L128.906 25.7812L135.938 18.75L124.219 16.4062L119.529 4.6875L114.844 16.4062L103.125 18.75L110.156 25.7812L107.812 37.5L119.531 30.4688Z" fill="#E7B541"/>
<path d="M119.531 30.4688L131.25 37.5L128.906 25.7812L135.938 18.75L124.219 16.4062L121.875 10.5469L119.531 16.4062L107.812 18.75L114.844 25.7812L113.14 34.3031L119.531 30.4688Z" fill="#F9CB6E"/>
<path d="M128.906 72.6562L140.625 79.6875L138.281 67.9688L145.312 60.9375L133.594 58.5938L128.904 46.875L124.219 58.5938L112.5 60.9375L119.531 67.9688L117.188 79.6875L128.906 72.6562Z" fill="#E7B541"/>
<path d="M128.906 72.6562L140.625 79.6875L138.281 67.9688L145.312 60.9375L133.594 58.5938L131.25 52.7344L128.906 58.5938L117.188 60.9375L124.219 67.9688L122.515 76.4906L128.906 72.6562Z" fill="#F9CB6E"/>
</svg>
