<svg width="223" height="130" viewBox="0 0 223 130" fill="none" xmlns="http://www.w3.org/2000/svg">
<path d="M5.5 0.5C2.73858 0.5 0.5 2.73858 0.5 5.5C0.5 8.26142 2.73858 10.5 5.5 10.5V0.5ZM221.036 96.0355C222.988 94.0829 222.988 90.9171 221.036 88.9645L189.216 57.1447C187.263 55.192 184.097 55.192 182.145 57.1447C180.192 59.0973 180.192 62.2631 182.145 64.2157L210.429 92.5L182.145 120.784C180.192 122.737 180.192 125.903 182.145 127.855C184.097 129.808 187.263 129.808 189.216 127.855L221.036 96.0355ZM5.5 10.5H62.5V0.5H5.5V10.5ZM97.5 45.5V52.5H107.5V45.5H97.5ZM142.5 97.5H217.5V87.5H142.5V97.5ZM97.5 52.5C97.5 77.3528 117.647 97.5 142.5 97.5V87.5C123.17 87.5 107.5 71.83 107.5 52.5H97.5ZM62.5 10.5C81.83 10.5 97.5 26.17 97.5 45.5H107.5C107.5 20.6472 87.3528 0.5 62.5 0.5V10.5Z" fill="#F5F5F5"/>
</svg>
