<svg width="150" height="150" viewBox="0 0 150 150" fill="none" xmlns="http://www.w3.org/2000/svg">
<path d="M126.565 110.156L134.065 112.031L136.221 112.57C141.565 113.906 145.315 118.711 145.315 124.219V145.312H93.75L93.7523 124.219C93.7523 118.711 97.5023 113.906 102.846 112.57L105.002 112.031L112.502 110.156H126.565Z" fill="#B5B5B5"/>
<path d="M109.877 112.57C104.534 113.906 100.784 118.711 100.784 124.219L100.781 145.312H145.315V124.219C145.315 118.711 141.565 113.906 136.221 112.57L134.065 112.031L126.565 110.156H119.534L112.034 112.031L109.877 112.57Z" fill="#C9C9C9"/>
<path d="M100.784 82.1484V70.3125C100.784 63.8414 106.031 58.5938 112.502 58.5938H124.221C128.105 58.5938 131.252 61.7414 131.252 65.625C135.136 65.625 138.284 68.7727 138.284 72.6563V82.1484" fill="#3F4042"/>
<path d="M138.284 72.6563C138.284 68.7727 135.136 65.625 131.252 65.625C131.252 61.7414 128.105 58.5938 124.221 58.5938H112.502C109.987 58.5938 107.67 59.4023 105.762 60.75C105.581 61.568 105.471 62.4094 105.471 63.2813C105.471 69.818 110.77 75.1172 117.307 75.1172H138.284V72.6563Z" fill="#5A5B5D"/>
<path d="M124.69 117.656L121.877 121.875H117.19L114.377 117.656L119.534 112.5L124.69 117.656Z" fill="#03A19F"/>
<path d="M100.784 128.906H105.471V145.312H100.784V128.906Z" fill="#777777"/>
<path d="M124.221 145.312L121.877 121.875H117.19L114.846 145.312H124.221Z" fill="#03A19F"/>
<path d="M133.596 128.906H138.284V145.312H133.596V128.906Z" fill="#777777"/>
<path d="M112.502 103.584V110.156L119.534 112.5L126.565 110.156V103.584" fill="#EEB9AD"/>
<path d="M133.596 79.6875V91.4062C133.596 99.1734 127.301 105.469 119.534 105.469C111.766 105.469 105.471 99.1734 105.471 91.4062V79.6875H113.426C118.706 79.6875 123.635 77.0484 126.565 72.6562L133.596 79.6875Z" fill="#EEB9AD"/>
<path d="M105.471 82.0312H101.955C98.7187 82.0312 96.0961 84.6539 96.0961 87.8906C96.0961 91.1273 98.7187 93.75 101.955 93.75H105.666" fill="#EEB9AD"/>
<path d="M133.596 82.0312H137.112C140.348 82.0312 142.971 84.6539 142.971 87.8906C142.971 91.1273 140.348 93.75 137.112 93.75H133.402" fill="#EEB9AD"/>
<path d="M120.705 105.41C127.922 104.812 133.596 98.7773 133.596 91.4062V79.6875L126.565 72.6562C123.635 77.0484 118.706 79.6875 113.426 79.6875H107.815V91.4062C107.815 98.7773 113.489 104.812 120.705 105.41Z" fill="#FFE2D5"/>
<path d="M126.565 105.916C124.495 107.116 122.098 107.812 119.534 107.812C117.888 107.812 116.313 107.515 114.846 106.995V110.156L120.705 112.109L126.565 110.156V105.916Z" fill="#FFE2D5"/>
<path d="M119.534 112.5L112.502 110.156L105.002 112.031L112.502 119.531L119.534 112.5Z" fill="#B5B5B5"/>
<path d="M126.565 119.531L134.065 112.031L126.565 110.156L119.534 112.5L126.565 119.531Z" fill="#B5B5B5"/>
<path d="M119.534 121.875L117.19 145.312H124.221L121.877 121.875H119.534Z" fill="#2DACAA"/>
<path d="M11.7211 28.2422V23.4375C11.7211 13.0828 20.1164 4.6875 30.4711 4.6875C40.8258 4.6875 49.2211 13.0828 49.2211 23.4375V28.2422" fill="#662A12"/>
<path d="M49.2211 23.4376C49.2211 14.2852 42.6609 6.67506 33.9867 5.0274C25.3125 6.67506 18.7523 14.2852 18.7523 23.4376V28.2423H49.2211V23.4376Z" fill="#893B20"/>
<path d="M37.5023 56.25L45.0023 58.125L47.1586 58.6641C52.5023 60 56.2523 64.8047 56.2523 70.3125V91.4062H4.6875L4.68984 70.3125C4.68984 64.8047 8.43984 60 13.7836 58.6641L15.9398 58.125L23.4398 56.25H37.5023Z" fill="#B5B5B5"/>
<path d="M20.8148 58.6641C15.4711 60 11.7211 64.8047 11.7211 70.3125L11.7188 91.4062H56.2523V70.3125C56.2523 64.8047 52.5023 60 47.1586 58.6641L45.0023 58.125L37.5023 56.25H30.4711L22.9711 58.125L20.8148 58.6641Z" fill="#C9C9C9"/>
<path d="M35.6273 63.75L32.8148 67.9688H28.1273L25.3148 63.75L30.4711 58.5938L35.6273 63.75Z" fill="#03A19F"/>
<path d="M11.7211 75H16.4086V91.4062H11.7211V75Z" fill="#777777"/>
<path d="M35.1586 91.4062L32.8148 67.9688H28.1273L25.7836 91.4062H35.1586Z" fill="#03A19F"/>
<path d="M44.5336 75H49.2211V91.4062H44.5336V75Z" fill="#777777"/>
<path d="M23.4398 49.6781V56.25L30.4711 58.5937L37.5023 56.25V49.6781" fill="#EEB9AD"/>
<path d="M16.4086 28.125H12.8929C9.65623 28.125 7.03357 30.7477 7.03357 33.9844C7.03357 37.2211 9.65623 39.8438 12.8929 39.8438H16.6031" fill="#EEB9AD"/>
<path d="M44.5336 28.125H48.0493C51.286 28.125 53.9086 30.7477 53.9086 33.9844C53.9086 37.2211 51.286 39.8438 48.0493 39.8438H44.3391" fill="#EEB9AD"/>
<path d="M37.5023 52.0101C35.4328 53.2101 33.0351 53.9062 30.4711 53.9062C28.8258 53.9062 27.2508 53.6086 25.7836 53.0883V56.25L31.6429 58.2023L37.5023 56.25V52.0101Z" fill="#FFE2D5"/>
<path d="M30.4711 58.5938L23.4398 56.25L15.9398 58.125L23.4398 65.625L30.4711 58.5938Z" fill="#B5B5B5"/>
<path d="M37.5023 65.625L45.0023 58.125L37.5023 56.25L30.4711 58.5938L37.5023 65.625Z" fill="#B5B5B5"/>
<path d="M30.4711 67.9688L28.1273 91.4062H35.1586L32.8148 67.9688H30.4711Z" fill="#2DACAA"/>
<path d="M30.4711 25.7812C31.9711 25.7812 33.4101 25.1859 34.4719 24.1242L36.0468 22.5492C36.9797 21.6164 38.2453 21.0938 39.5625 21.0938C42.3094 21.0938 44.5336 23.3203 44.5336 26.0648V37.5C44.5336 45.2672 38.2383 51.5625 30.4711 51.5625C22.7039 51.5625 16.4086 45.2672 16.4086 37.5V26.0648C16.4086 23.3203 18.6351 21.0938 21.382 21.0938C22.7015 21.0938 23.9648 21.6164 24.8976 22.5492L26.4726 24.1242C27.532 25.1859 28.9711 25.7812 30.4711 25.7812V25.7812Z" fill="#EEB9AD"/>
<path d="M39.5625 21.0938C38.243 21.0938 36.9797 21.6164 36.0469 22.5492L34.4719 24.1242C33.4125 25.1859 31.9734 25.7812 30.4711 25.7812C28.9711 25.7812 27.532 25.1859 26.4703 24.1242L24.8953 22.5492C24.5484 22.2023 24.1453 21.9328 23.7211 21.7055C22.1648 22.5445 21.0938 24.1711 21.0938 26.0648V37.5C21.0938 44.4656 26.1633 50.2336 32.8125 51.3516C39.4617 50.2336 44.5313 44.4656 44.5313 37.5V26.0648C44.5336 23.3203 42.3094 21.0938 39.5625 21.0938V21.0938Z" fill="#FFE2D5"/>
<path d="M74.0837 14.0625H108.764C116.016 14.0625 121.894 19.9406 121.894 27.1922C121.894 27.8133 121.849 28.4344 121.763 29.0484L118.863 49.3359C117.909 55.9922 112.209 60.9375 105.485 60.9375H96.1102L86.7352 70.3125V60.9375H77.3602C70.636 60.9375 64.936 55.9922 63.9844 49.3359L61.0852 29.0484C60.9985 28.4344 60.954 27.8133 60.954 27.1922C60.954 19.9406 66.8321 14.0625 74.0837 14.0625V14.0625Z" fill="#03A19F"/>
<path d="M70.3125 44.5312C70.3125 49.7086 74.5102 53.9062 79.6875 53.9062H117.337C118.097 52.5187 118.627 50.9812 118.861 49.3359L121.76 29.0484C121.847 28.4344 121.891 27.8133 121.891 27.1922C121.891 19.9406 116.013 14.0625 108.762 14.0625H74.0836C72.7711 14.0625 71.5078 14.2594 70.3125 14.618V44.5312Z" fill="#05BCB9"/>
<path d="M77.3438 46.875C79.9326 46.875 82.0312 44.7763 82.0312 42.1875C82.0312 39.5987 79.9326 37.5 77.3438 37.5C74.7549 37.5 72.6562 39.5987 72.6562 42.1875C72.6562 44.7763 74.7549 46.875 77.3438 46.875Z" fill="white"/>
<path d="M91.4062 46.875C93.9951 46.875 96.0938 44.7763 96.0938 42.1875C96.0938 39.5987 93.9951 37.5 91.4062 37.5C88.8174 37.5 86.7188 39.5987 86.7188 42.1875C86.7188 44.7763 88.8174 46.875 91.4062 46.875Z" fill="white"/>
<path d="M105.469 46.875C108.058 46.875 110.156 44.7763 110.156 42.1875C110.156 39.5987 108.058 37.5 105.469 37.5C102.88 37.5 100.781 39.5987 100.781 42.1875C100.781 44.7763 102.88 46.875 105.469 46.875Z" fill="white"/>
<path d="M75.9328 79.6875H41.2547C34.0031 79.6875 28.125 85.5656 28.125 92.8172C28.125 93.4383 28.1695 94.0594 28.2562 94.6734L31.1555 114.961C32.107 121.617 37.807 126.562 44.5312 126.562H53.9062L63.2812 135.938V126.562H72.6562C79.3805 126.562 85.0805 121.617 86.032 114.961L88.9313 94.6734C89.018 94.0594 89.0625 93.4383 89.0625 92.8172C89.0625 85.5656 83.1844 79.6875 75.9328 79.6875V79.6875Z" fill="#03A29F"/>
<path d="M79.7039 110.156C79.7039 115.334 75.5062 119.531 70.3289 119.531H32.6789C31.9195 118.144 31.3898 116.606 31.1555 114.961L28.2562 94.6734C28.1695 94.0594 28.125 93.4383 28.125 92.8172C28.125 85.5656 34.0031 79.6875 41.2547 79.6875H75.9351C77.2476 79.6875 78.5109 79.8844 79.7062 80.243V110.156H79.7039Z" fill="#05BCB9"/>
<path d="M72.6727 112.5C75.2616 112.5 77.3602 110.401 77.3602 107.812C77.3602 105.224 75.2616 103.125 72.6727 103.125C70.0839 103.125 67.9852 105.224 67.9852 107.812C67.9852 110.401 70.0839 112.5 72.6727 112.5Z" fill="white"/>
<path d="M58.6101 112.5C61.1989 112.5 63.2976 110.401 63.2976 107.812C63.2976 105.224 61.1989 103.125 58.6101 103.125C56.0213 103.125 53.9226 105.224 53.9226 107.812C53.9226 110.401 56.0213 112.5 58.6101 112.5Z" fill="white"/>
<path d="M44.5476 112.5C47.1364 112.5 49.2351 110.401 49.2351 107.812C49.2351 105.224 47.1364 103.125 44.5476 103.125C41.9588 103.125 39.8601 105.224 39.8601 107.812C39.8601 110.401 41.9588 112.5 44.5476 112.5Z" fill="white"/>
</svg>
