<svg width="25" height="25" viewBox="0 0 25 25" fill="none" xmlns="http://www.w3.org/2000/svg">
<path d="M5.51335 5.51335C5.92015 5.10655 6.57969 5.10655 6.98649 5.51335L12.4999 11.0268L18.0134 5.51335C18.4201 5.10655 19.0797 5.10655 19.4865 5.51335C19.8933 5.92015 19.8933 6.57969 19.4865 6.98649L13.973 12.4999L19.4865 18.0134C19.8933 18.4201 19.8933 19.0797 19.4865 19.4865C19.0797 19.8933 18.4201 19.8933 18.0134 19.4865L12.4999 13.973L6.98649 19.4865C6.57969 19.8933 5.92015 19.8933 5.51335 19.4865C5.10655 19.0797 5.10655 18.4201 5.51335 18.0134L11.0268 12.4999L5.51335 6.98649C5.10655 6.57969 5.10655 5.92015 5.51335 5.51335Z" fill="white"/>
</svg>
