<svg width="69" height="69" viewBox="0 0 69 69" fill="none" xmlns="http://www.w3.org/2000/svg">
<path d="M27.75 7.5C16.5662 7.5 7.5 16.5662 7.5 27.75C7.5 38.9337 16.5662 48 27.75 48C38.9337 48 48 38.9337 48 27.75C48 16.5662 38.9337 7.5 27.75 7.5ZM0.75 27.75C0.75 12.8383 12.8383 0.75 27.75 0.75C42.6618 0.75 54.75 12.8383 54.75 27.75C54.75 33.9894 52.6335 39.7346 49.0797 44.3064L67.2615 62.4885C68.5794 63.8065 68.5794 65.9435 67.2615 67.2615C65.9435 68.5794 63.8065 68.5794 62.4885 67.2615L44.3064 49.0797C39.7346 52.6335 33.9894 54.75 27.75 54.75C12.8383 54.75 0.75 42.6618 0.75 27.75Z" fill="#A5A7B0"/>
</svg>
